Model Std Two_CONVERTED.ufo
<glyph name="dollar" format="2">
  <advance width="625"/>
  <unicode hex="0024"/>
  <outline>
    <contour>
      <point x="553" y="669" type="curve" smooth="yes"/>
      <point x="477" y="669"/>
      <point x="390" y="620"/>
      <point x="390" y="513" type="curve" smooth="yes"/>
      <point x="390" y="466"/>
      <point x="409" y="425"/>
      <point x="432" y="385" type="curve"/>
      <point x="349" y="222" type="line"/>
      <point x="353" y="235"/>
      <point x="356" y="249"/>
      <point x="356" y="263" type="curve" smooth="yes"/>
      <point x="356" y="318"/>
      <point x="310" y="363"/>
      <point x="241" y="363" type="curve" smooth="yes"/>
      <point x="144" y="363"/>
      <point x="43" y="276"/>
      <point x="43" y="157" type="curve" smooth="yes"/>
      <point x="43" y="57"/>
      <point x="115" y="-22"/>
      <point x="217" y="-36" type="curve"/>
      <point x="174" y="-121" type="line"/>
      <point x="178" y="-123" type="line"/>
      <point x="222" y="-36" type="line"/>
      <point x="231" y="-37"/>
      <point x="239" y="-38"/>
      <point x="249" y="-38" type="curve" smooth="yes"/>
      <point x="387" y="-38"/>
      <point x="512" y="81"/>
      <point x="512" y="216" type="curve" smooth="yes"/>
      <point x="512" y="288"/>
      <point x="474" y="341"/>
      <point x="443" y="396" type="curve"/>
      <point x="578" y="661" type="line"/>
      <point x="627" y="650"/>
      <point x="651" y="611"/>
      <point x="651" y="572" type="curve" smooth="yes"/>
      <point x="651" y="536"/>
      <point x="625" y="485"/>
      <point x="575" y="485" type="curve" smooth="yes"/>
      <point x="566" y="485"/>
      <point x="558" y="487"/>
      <point x="551" y="491" type="curve"/>
      <point x="550" y="487" type="line"/>
      <point x="560" y="483"/>
      <point x="569" y="481"/>
      <point x="579" y="481" type="curve" smooth="yes"/>
      <point x="627" y="481"/>
      <point x="663" y="533"/>
      <point x="663" y="570" type="curve" smooth="yes"/>
      <point x="663" y="613"/>
      <point x="636" y="656"/>
      <point x="580" y="666" type="curve"/>
      <point x="635" y="773" type="line"/>
      <point x="631" y="775" type="line"/>
      <point x="576" y="667" type="line"/>
      <point x="569" y="668"/>
      <point x="561" y="669"/>
    </contour>
    <contour>
      <point x="54" y="160" type="curve" smooth="yes"/>
      <point x="54" y="272"/>
      <point x="151" y="359"/>
      <point x="242" y="359" type="curve" smooth="yes"/>
      <point x="310" y="359"/>
      <point x="349" y="312"/>
      <point x="349" y="262" type="curve" smooth="yes"/>
      <point x="349" y="208"/>
      <point x="303" y="144"/>
      <point x="240" y="144" type="curve" smooth="yes"/>
      <point x="231" y="144"/>
      <point x="196" y="145"/>
      <point x="185" y="177" type="curve"/>
      <point x="182" y="175" type="line"/>
      <point x="195" y="145"/>
      <point x="223" y="140"/>
      <point x="242" y="140" type="curve" smooth="yes"/>
      <point x="282" y="140"/>
      <point x="313" y="161"/>
      <point x="332" y="190" type="curve"/>
      <point x="218" y="-33" type="line"/>
      <point x="118" y="-21"/>
      <point x="54" y="59"/>
    </contour>
    <contour>
      <point x="498" y="210" type="curve" smooth="yes"/>
      <point x="498" y="72"/>
      <point x="372" y="-35"/>
      <point x="246" y="-35" type="curve" smooth="yes"/>
      <point x="238" y="-35"/>
      <point x="231" y="-34"/>
      <point x="223" y="-34" type="curve"/>
      <point x="434" y="380" type="line"/>
      <point x="464" y="327"/>
      <point x="498" y="274"/>
    </contour>
    <contour>
      <point x="402" y="527" type="curve" smooth="yes"/>
      <point x="402" y="625"/>
      <point x="485" y="665"/>
      <point x="545" y="665" type="curve" smooth="yes"/>
      <point x="555" y="665"/>
      <point x="565" y="664"/>
      <point x="573" y="662" type="curve"/>
      <point x="440" y="401" type="line"/>
      <point x="419" y="439"/>
      <point x="402" y="479"/>
    </contour>
  </outline>
</glyph>
<glyph name="ampersand" format="2">
  <advance width="713"/>
  <unicode hex="0026"/>
  <outline>
    <contour>
      <point x="599" y="792" type="curve"/>
      <point x="597" y="792"/>
      <point x="594" y="793"/>
      <point x="591" y="793" type="curve" smooth="yes"/>
      <point x="513" y="793"/>
      <point x="439" y="690"/>
      <point x="428" y="551" type="curve"/>
      <point x="403" y="538"/>
      <point x="380" y="527"/>
      <point x="361" y="520" type="curve"/>
      <point x="179" y="434"/>
      <point x="61" y="338"/>
      <point x="54" y="186" type="curve" smooth="yes"/>
      <point x="47" y="45"/>
      <point x="143" y="-23"/>
      <point x="252" y="-23" type="curve" smooth="yes"/>
      <point x="337" y="-23"/>
      <point x="420" y="18"/>
      <point x="485" y="76" type="curve"/>
      <point x="485" y="70" type="line"/>
      <point x="481" y="-18"/>
      <point x="418" y="-118"/>
      <point x="318" y="-118" type="curve" smooth="yes"/>
      <point x="300" y="-118"/>
      <point x="284" y="-112"/>
      <point x="272" y="-95" type="curve"/>
      <point x="270" y="-98" type="line"/>
      <point x="280" y="-116"/>
      <point x="299" y="-123"/>
      <point x="319" y="-123" type="curve" smooth="yes"/>
      <point x="421" y="-123"/>
      <point x="488" y="-29"/>
      <point x="492" y="65" type="curve" smooth="yes"/>
      <point x="492" y="82" type="line"/>
      <point x="561" y="146"/>
      <point x="608" y="229"/>
      <point x="611" y="298" type="curve" smooth="yes"/>
      <point x="616" y="401"/>
      <point x="549" y="447"/>
      <point x="474" y="447" type="curve" smooth="yes"/>
      <point x="464" y="447"/>
      <point x="454" y="446"/>
      <point x="444" y="444" type="curve"/>
      <point x="441" y="479"/>
      <point x="439" y="513"/>
      <point x="441" y="548" type="curve"/>
      <point x="441" y="553" type="line"/>
      <point x="530" y="601"/>
      <point x="631" y="673"/>
      <point x="631" y="752" type="curve" smooth="yes"/>
      <point x="631" y="774"/>
      <point x="618" y="789"/>
    </contour>
    <contour>
      <point x="431" y="443" type="curve"/>
      <point x="341" y="425"/>
      <point x="254" y="352"/>
      <point x="249" y="247" type="curve" smooth="yes"/>
      <point x="247" y="198"/>
      <point x="271" y="145"/>
      <point x="320" y="145" type="curve" smooth="yes"/>
      <point x="327" y="145"/>
      <point x="334" y="145"/>
      <point x="341" y="149" type="curve"/>
      <point x="339" y="152" type="line"/>
      <point x="334" y="149"/>
      <point x="329" y="149"/>
      <point x="324" y="149" type="curve" smooth="yes"/>
      <point x="282" y="149"/>
      <point x="263" y="202"/>
      <point x="265" y="250" type="curve" smooth="yes"/>
      <point x="270" y="354"/>
      <point x="350" y="423"/>
      <point x="432" y="439" type="curve"/>
      <point x="446" y="319"/>
      <point x="486" y="206"/>
      <point x="485" y="90" type="curve"/>
      <point x="422" y="27"/>
      <point x="338" y="-19"/>
      <point x="252" y="-19" type="curve" smooth="yes"/>
      <point x="150" y="-19"/>
      <point x="64" y="49"/>
      <point x="71" y="180" type="curve" smooth="yes"/>
      <point x="78" y="339"/>
      <point x="219" y="443"/>
      <point x="363" y="515" type="curve"/>
      <point x="382" y="523"/>
      <point x="404" y="533"/>
      <point x="428" y="546" type="curve"/>
      <point x="428" y="539" type="line"/>
      <point x="426" y="506"/>
      <point x="428" y="474"/>
    </contour>
    <contour>
      <point x="445" y="442" type="curve"/>
      <point x="452" y="443"/>
      <point x="459" y="443"/>
      <point x="467" y="443" type="curve" smooth="yes"/>
      <point x="536" y="443"/>
      <point x="598" y="397"/>
      <point x="593" y="296" type="curve" smooth="yes"/>
      <point x="590" y="234"/>
      <point x="551" y="159"/>
      <point x="492" y="97" type="curve"/>
      <point x="491" y="209"/>
      <point x="457" y="325"/>
    </contour>
    <contour>
      <point x="589" y="780" type="curve"/>
      <point x="607" y="776"/>
      <point x="617" y="760"/>
      <point x="617" y="746" type="curve" smooth="yes"/>
      <point x="617" y="673"/>
      <point x="524" y="603"/>
      <point x="441" y="558" type="curve"/>
      <point x="450" y="681"/>
      <point x="508" y="781"/>
      <point x="583" y="781" type="curve" smooth="yes"/>
      <point x="586" y="781"/>
      <point x="587" y="780"/>
    </contour>
  </outline>
</glyph>
<glyph name="quotesingle" format="2">
  <advance width="196"/>
  <unicode hex="0027"/>
  <outline>
    <contour>
      <point x="152" y="683" type="line"/>
      <point x="155" y="683" type="line"/>
      <point x="225" y="792" type="line" smooth="yes"/>
      <point x="242" y="819"/>
      <point x="204" y="823"/>
      <point x="194" y="795" type="curve" smooth="yes"/>
    </contour>
  </outline>
</glyph>
<glyph name="semicolon" format="2">
  <advance width="302"/>
  <unicode hex="003B"/>
  <outline>
    <contour>
      <point x="165" y="418" type="curve"/>
      <point x="162" y="407"/>
      <point x="167" y="395"/>
      <point x="181" y="395" type="curve" smooth="yes"/>
      <point x="194" y="395"/>
      <point x="208" y="404"/>
      <point x="212" y="418" type="curve"/>
      <point x="217" y="432"/>
      <point x="209" y="442"/>
      <point x="197" y="442" type="curve" smooth="yes"/>
      <point x="183" y="442"/>
      <point x="170" y="432"/>
    </contour>
    <contour>
      <point x="38" y="40" type="curve" smooth="yes"/>
      <point x="23" y="40"/>
      <point x="9" y="27"/>
      <point x="9" y="13" type="curve" smooth="yes"/>
      <point x="9" y="5"/>
      <point x="13" y="-3"/>
      <point x="24" y="-3" type="curve" smooth="yes"/>
      <point x="26" y="-3"/>
      <point x="30" y="-3"/>
      <point x="32" y="-2" type="curve"/>
      <point x="33" y="-5"/>
      <point x="35" y="-9"/>
      <point x="31" y="-16" type="curve"/>
      <point x="17" y="-36"/>
      <point x="2" y="-54"/>
      <point x="-18" y="-68" type="curve"/>
      <point x="-16" y="-72" type="line"/>
      <point x="13" y="-52"/>
      <point x="54" y="-11"/>
      <point x="54" y="19" type="curve" smooth="yes"/>
      <point x="54" y="32"/>
      <point x="46" y="40"/>
    </contour>
  </outline>
</glyph>
<glyph name="at" format="2">
  <advance width="673"/>
  <unicode hex="0040"/>
  <outline>
    <contour>
      <point x="400" y="559" type="curve" smooth="yes"/>
      <point x="438" y="559"/>
      <point x="449" y="533"/>
      <point x="444" y="503" type="curve" smooth="yes"/>
      <point x="440" y="475"/>
      <point x="425" y="444"/>
      <point x="404" y="424" type="curve"/>
      <point x="405" y="421" type="line"/>
      <point x="428" y="443"/>
      <point x="446" y="475"/>
      <point x="450" y="503" type="curve" smooth="yes"/>
      <point x="455" y="535"/>
      <point x="440" y="563"/>
      <point x="400" y="563" type="curve" smooth="yes"/>
      <point x="340" y="563"/>
      <point x="247" y="471"/>
      <point x="197" y="349" type="curve" smooth="yes"/>
      <point x="181" y="308"/>
      <point x="170" y="273"/>
      <point x="164" y="234" type="curve" smooth="yes"/>
      <point x="156" y="169"/>
      <point x="178" y="120"/>
      <point x="213" y="120" type="curve" smooth="yes"/>
      <point x="260" y="120"/>
      <point x="330" y="200"/>
      <point x="372" y="280" type="curve"/>
      <point x="348" y="201"/>
      <point x="348" y="108"/>
      <point x="440" y="108" type="curve" smooth="yes"/>
      <point x="560" y="108"/>
      <point x="682" y="311"/>
      <point x="688" y="472" type="curve" smooth="yes"/>
      <point x="694" y="625"/>
      <point x="624" y="749"/>
      <point x="467" y="749" type="curve" smooth="yes"/>
      <point x="200" y="749"/>
      <point x="-9" y="379"/>
      <point x="-17" y="159" type="curve" smooth="yes"/>
      <point x="-24" y="-22"/>
      <point x="50" y="-127"/>
      <point x="200" y="-127" type="curve" smooth="yes"/>
      <point x="251" y="-127"/>
      <point x="364" y="-102"/>
      <point x="434" y="-16" type="curve"/>
      <point x="430" y="-14" type="line"/>
      <point x="361" y="-98"/>
      <point x="250" y="-123"/>
      <point x="200" y="-123" type="curve" smooth="yes"/>
      <point x="52" y="-123"/>
      <point x="-20" y="-20"/>
      <point x="-13" y="159" type="curve" smooth="yes"/>
      <point x="-5" y="377"/>
      <point x="202" y="745"/>
      <point x="467" y="745" type="curve" smooth="yes"/>
      <point x="622" y="745"/>
      <point x="690" y="623"/>
      <point x="684" y="472" type="curve" smooth="yes"/>
      <point x="678" y="313"/>
      <point x="558" y="112"/>
      <point x="440" y="112" type="curve" smooth="yes"/>
      <point x="336" y="112"/>
      <point x="370" y="256"/>
      <point x="407" y="333" type="curve" smooth="yes"/>
      <point x="513" y="554" type="line"/>
      <point x="493" y="553" type="line"/>
      <point x="392" y="333" type="line" smooth="yes"/>
      <point x="389" y="326"/>
      <point x="385" y="319"/>
      <point x="382" y="311" type="curve"/>
      <point x="337" y="216"/>
      <point x="262" y="127"/>
      <point x="215" y="127" type="curve" smooth="yes"/>
      <point x="182" y="127"/>
      <point x="171" y="164"/>
      <point x="179" y="224" type="curve" smooth="yes"/>
      <point x="184" y="264"/>
      <point x="193" y="299"/>
      <point x="210" y="341" type="curve" smooth="yes"/>
      <point x="262" y="461"/>
      <point x="347" y="559"/>
    </contour>
  </outline>
</glyph>
<glyph name="A" format="2">
  <advance width="849"/>
  <unicode hex="0041"/>
  <outline>
    <contour>
      <point x="-289" y="70" type="line"/>
      <point x="-351" y="-33"/>
      <point x="-277" y="-80"/>
      <point x="-219" y="-83" type="curve" smooth="yes"/>
      <point x="-136" y="-87"/>
      <point x="-58" y="-75"/>
      <point x="14" y="-46" type="curve"/>
      <point x="47" y="-61"/>
      <point x="85" y="-70"/>
      <point x="127" y="-71" type="curve" smooth="yes"/>
      <point x="260" y="-71"/>
      <point x="391" y="37"/>
      <point x="401" y="170" type="curve" smooth="yes"/>
      <point x="404" y="211"/>
      <point x="395" y="244"/>
      <point x="379" y="270" type="curve"/>
      <point x="409" y="309" type="line" smooth="yes"/>
      <point x="458" y="374"/>
      <point x="504" y="442"/>
      <point x="549" y="509" type="curve"/>
      <point x="631" y="451"/>
      <point x="680" y="363"/>
      <point x="680" y="276" type="curve" smooth="yes"/>
      <point x="680" y="264" type="line"/>
      <point x="561" y="8" type="line" smooth="yes"/>
      <point x="551" y="-16"/>
      <point x="547" y="-34"/>
      <point x="547" y="-47" type="curve" smooth="yes"/>
      <point x="547" y="-68"/>
      <point x="557" y="-77"/>
      <point x="567" y="-77" type="curve" smooth="yes"/>
      <point x="585" y="-77"/>
      <point x="620" y="-29"/>
      <point x="653" y="70" type="curve" smooth="yes"/>
      <point x="670" y="121"/>
      <point x="690" y="198"/>
      <point x="692" y="248" type="curve"/>
      <point x="908" y="715" type="line" smooth="yes"/>
      <point x="937" y="779"/>
      <point x="992" y="893"/>
      <point x="1026" y="915" type="curve" smooth="yes"/>
      <point x="1039" y="923"/>
      <point x="1048" y="934"/>
      <point x="1048" y="942" type="curve" smooth="yes"/>
      <point x="1048" y="959"/>
      <point x="1039" y="982"/>
      <point x="1009" y="982" type="curve" smooth="yes"/>
      <point x="859" y="982"/>
      <point x="709" y="752"/>
      <point x="546" y="516" type="curve"/>
      <point x="491" y="554"/>
      <point x="420" y="579"/>
      <point x="338" y="579" type="curve" smooth="yes"/>
      <point x="77" y="579"/>
      <point x="-129" y="404"/>
      <point x="-120" y="171" type="curve" smooth="yes"/>
      <point x="-116" y="78"/>
      <point x="-72" y="3"/>
      <point x="-1" y="-37" type="curve"/>
      <point x="-70" y="-66"/>
      <point x="-142" y="-81"/>
      <point x="-218" y="-77" type="curve" smooth="yes"/>
      <point x="-269" y="-74"/>
      <point x="-342" y="-24"/>
      <point x="-288" y="69" type="curve"/>
    </contour>
    <contour>
      <point x="104" y="132" type="line"/>
      <point x="89" y="150"/>
      <point x="86" y="171"/>
      <point x="88" y="192" type="curve" smooth="yes"/>
      <point x="93" y="264"/>
      <point x="169" y="330"/>
      <point x="254" y="330" type="curve" smooth="yes"/>
      <point x="299" y="330"/>
      <point x="342" y="311"/>
      <point x="367" y="271" type="curve"/>
      <point x="261" y="138"/>
      <point x="140" y="25"/>
      <point x="7" y="-33" type="curve"/>
      <point x="-57" y="6"/>
      <point x="-96" y="77"/>
      <point x="-100" y="167" type="curve" smooth="yes"/>
      <point x="-109" y="400"/>
      <point x="80" y="574"/>
      <point x="338" y="574" type="curve" smooth="yes"/>
      <point x="418" y="574"/>
      <point x="488" y="550"/>
      <point x="544" y="513" type="curve"/>
      <point x="497" y="445"/>
      <point x="449" y="376"/>
      <point x="400" y="313" type="curve" smooth="yes"/>
      <point x="373" y="279" type="line"/>
      <point x="346" y="316"/>
      <point x="301" y="335"/>
      <point x="255" y="335" type="curve" smooth="yes"/>
      <point x="166" y="335"/>
      <point x="83" y="266"/>
      <point x="79" y="192" type="curve"/>
      <point x="76" y="168"/>
      <point x="84" y="149"/>
      <point x="100" y="130" type="curve"/>
    </contour>
    <contour>
      <point x="552" y="513" type="curve"/>
      <point x="648" y="655"/>
      <point x="736" y="791"/>
      <point x="828" y="879" type="curve" smooth="yes"/>
      <point x="882" y="926"/>
      <point x="934" y="969"/>
      <point x="995" y="969" type="curve" smooth="yes"/>
      <point x="1023" y="969"/>
      <point x="1044" y="957"/>
      <point x="1044" y="942" type="curve" smooth="yes"/>
      <point x="1044" y="935"/>
      <point x="1037" y="926"/>
      <point x="1024" y="919" type="curve" smooth="yes"/>
      <point x="989" y="899"/>
      <point x="919" y="779"/>
      <point x="889" y="715" type="curve" smooth="yes"/>
      <point x="690" y="286" type="line"/>
      <point x="680" y="370"/>
      <point x="632" y="456"/>
    </contour>
    <contour>
      <point x="128" y="-67" type="curve" smooth="yes"/>
      <point x="89" y="-66"/>
      <point x="53" y="-58"/>
      <point x="23" y="-42" type="curve"/>
      <point x="65" y="-25"/>
      <point x="105" y="-2"/>
      <point x="143" y="25" type="curve" smooth="yes"/>
      <point x="228" y="85"/>
      <point x="302" y="170"/>
      <point x="373" y="261" type="curve"/>
      <point x="385" y="238"/>
      <point x="391" y="208"/>
      <point x="389" y="171" type="curve" smooth="yes"/>
      <point x="378" y="38"/>
      <point x="257" y="-67"/>
    </contour>
    <contour>
      <point x="571" y="-15" type="line"/>
      <point x="575" y="-6" type="line"/>
      <point x="678" y="217" type="line"/>
      <point x="674" y="162"/>
      <point x="665" y="118"/>
      <point x="649" y="76" type="curve" smooth="yes"/>
      <point x="610" y="-27"/>
      <point x="583" y="-72"/>
      <point x="568" y="-72" type="curve" smooth="yes"/>
      <point x="561" y="-72"/>
      <point x="559" y="-67"/>
      <point x="559" y="-59" type="curve" smooth="yes"/>
      <point x="559" y="-47"/>
      <point x="564" y="-29"/>
      <point x="571" y="-14" type="curve"/>
    </contour>
  </outline>
</glyph>
<glyph name="H" format="2">
  <advance width="946"/>
  <unicode hex="0048"/>
  <outline>
    <contour>
      <point x="341" y="414" type="line"/>
      <point x="411" y="414" type="line"/>
      <point x="354" y="307" type="line" smooth="yes"/>
      <point x="291" y="188"/>
      <point x="156" y="-13"/>
      <point x="-5" y="-13" type="curve" smooth="yes"/>
      <point x="-46" y="-13"/>
      <point x="-118" y="14"/>
      <point x="-118" y="83" type="curve" smooth="yes"/>
      <point x="-118" y="97"/>
      <point x="-115" y="111"/>
      <point x="-109" y="128" type="curve"/>
      <point x="-110" y="129" type="line"/>
      <point x="-118" y="109"/>
      <point x="-122" y="90"/>
      <point x="-122" y="75" type="curve" smooth="yes"/>
      <point x="-122" y="3"/>
      <point x="-46" y="-20"/>
      <point x="-1" y="-20" type="curve" smooth="yes"/>
      <point x="189" y="-20"/>
      <point x="303" y="163"/>
      <point x="383" y="316" type="curve" smooth="yes"/>
      <point x="431" y="414" type="line"/>
      <point x="793" y="414" type="line"/>
      <point x="760" y="345"/>
      <point x="730" y="276"/>
      <point x="704" y="208" type="curve" smooth="yes"/>
      <point x="674" y="130"/>
      <point x="647" y="39"/>
      <point x="647" y="-37" type="curve" smooth="yes"/>
      <point x="647" y="-121"/>
      <point x="683" y="-194"/>
      <point x="766" y="-194" type="curve" smooth="yes"/>
      <point x="850" y="-194"/>
      <point x="873" y="-134"/>
      <point x="873" y="-106" type="curve" smooth="yes"/>
      <point x="873" y="-95"/>
      <point x="867" y="-69"/>
      <point x="845" y="-61" type="curve"/>
      <point x="844" y="-63" type="line"/>
      <point x="862" y="-72"/>
      <point x="866" y="-89"/>
      <point x="866" y="-99" type="curve" smooth="yes"/>
      <point x="866" y="-125"/>
      <point x="846" y="-190"/>
      <point x="766" y="-190" type="curve" smooth="yes"/>
      <point x="696" y="-190"/>
      <point x="662" y="-122"/>
      <point x="662" y="-43" type="curve" smooth="yes"/>
      <point x="662" y="29"/>
      <point x="687" y="117"/>
      <point x="718" y="195" type="curve" smooth="yes"/>
      <point x="747" y="267"/>
      <point x="779" y="341"/>
      <point x="813" y="414" type="curve"/>
      <point x="885" y="414" type="line"/>
      <point x="885" y="418" type="line"/>
      <point x="814" y="418" type="line"/>
      <point x="952" y="708"/>
      <point x="1129" y="967"/>
      <point x="1312" y="967" type="curve" smooth="yes"/>
      <point x="1352" y="967"/>
      <point x="1390" y="939"/>
      <point x="1398" y="895" type="curve"/>
      <point x="1400" y="901"/>
      <point x="1401" y="906"/>
      <point x="1401" y="911" type="curve" smooth="yes"/>
      <point x="1401" y="947"/>
      <point x="1355" y="971"/>
      <point x="1314" y="971" type="curve" smooth="yes"/>
      <point x="1130" y="971"/>
      <point x="935" y="708"/>
      <point x="795" y="418" type="curve"/>
      <point x="433" y="418" type="line"/>
      <point x="446" y="445"/>
      <point x="461" y="473"/>
      <point x="476" y="501" type="curve" smooth="yes"/>
      <point x="478" y="505" type="line" smooth="yes"/>
      <point x="546" y="631"/>
      <point x="643" y="755"/>
      <point x="704" y="793" type="curve" smooth="yes"/>
      <point x="738" y="815"/>
      <point x="788" y="825"/>
      <point x="788" y="858" type="curve" smooth="yes"/>
      <point x="788" y="934"/>
      <point x="607" y="976"/>
      <point x="469" y="976" type="curve" smooth="yes"/>
      <point x="235" y="976"/>
      <point x="-32" y="835"/>
      <point x="-32" y="595" type="curve" smooth="yes"/>
      <point x="-32" y="497"/>
      <point x="26" y="390"/>
      <point x="152" y="387" type="curve" smooth="yes"/>
      <point x="280" y="387"/>
      <point x="405" y="499"/>
      <point x="405" y="632" type="curve" smooth="yes"/>
      <point x="405" y="716"/>
      <point x="344" y="760"/>
      <point x="276" y="760" type="curve" smooth="yes"/>
      <point x="189" y="760"/>
      <point x="106" y="688"/>
      <point x="106" y="616" type="curve" smooth="yes"/>
      <point x="106" y="599"/>
      <point x="114" y="586"/>
      <point x="124" y="571" type="curve"/>
      <point x="128" y="573" type="line"/>
      <point x="120" y="586"/>
      <point x="116" y="599"/>
      <point x="116" y="613" type="curve" smooth="yes"/>
      <point x="116" y="685"/>
      <point x="189" y="755"/>
      <point x="275" y="755" type="curve" smooth="yes"/>
      <point x="336" y="755"/>
      <point x="391" y="717"/>
      <point x="391" y="633" type="curve" smooth="yes"/>
      <point x="391" y="502"/>
      <point x="278" y="396"/>
      <point x="161" y="391" type="curve" smooth="yes"/>
      <point x="31" y="391"/>
      <point x="-21" y="490"/>
      <point x="-21" y="583" type="curve" smooth="yes"/>
      <point x="-21" y="774"/>
      <point x="181" y="968"/>
      <point x="470" y="971" type="curve" smooth="yes"/>
      <point x="615" y="971"/>
      <point x="777" y="926"/>
      <point x="777" y="858" type="curve" smooth="yes"/>
      <point x="777" y="828"/>
      <point x="732" y="815"/>
      <point x="703" y="798" type="curve" smooth="yes"/>
      <point x="634" y="757"/>
      <point x="534" y="633"/>
      <point x="461" y="505" type="curve"/>
      <point x="459" y="501" type="line"/>
      <point x="413" y="418" type="line"/>
      <point x="343" y="418" type="line"/>
    </contour>
  </outline>
</glyph>
<glyph name="V" format="2">
  <advance width="979"/>
  <unicode hex="0056"/>
  <outline>
    <contour>
      <point x="884" y="860" type="line"/>
      <point x="896" y="866"/>
      <point x="907" y="869"/>
      <point x="918" y="869" type="curve" smooth="yes"/>
      <point x="973" y="869"/>
      <point x="992" y="816"/>
      <point x="993" y="776" type="curve" smooth="yes"/>
      <point x="993" y="542"/>
      <point x="693" y="187"/>
      <point x="419" y="55" type="curve" smooth="yes"/>
      <point x="393" y="42"/>
      <point x="351" y="23"/>
      <point x="310" y="5" type="curve"/>
      <point x="454" y="145"/>
      <point x="611" y="437"/>
      <point x="611" y="634" type="curve" smooth="yes"/>
      <point x="611" y="794"/>
      <point x="529" y="936"/>
      <point x="320" y="936" type="curve" smooth="yes"/>
      <point x="134" y="936"/>
      <point x="-84" y="800"/>
      <point x="-84" y="565" type="curve" smooth="yes"/>
      <point x="-84" y="467"/>
      <point x="-26" y="360"/>
      <point x="100" y="357" type="curve" smooth="yes"/>
      <point x="228" y="357"/>
      <point x="353" y="469"/>
      <point x="353" y="602" type="curve" smooth="yes"/>
      <point x="353" y="686"/>
      <point x="292" y="730"/>
      <point x="224" y="730" type="curve" smooth="yes"/>
      <point x="137" y="730"/>
      <point x="54" y="658"/>
      <point x="54" y="586" type="curve" smooth="yes"/>
      <point x="54" y="569"/>
      <point x="62" y="556"/>
      <point x="72" y="541" type="curve"/>
      <point x="76" y="543" type="line"/>
      <point x="68" y="556"/>
      <point x="64" y="569"/>
      <point x="64" y="583" type="curve" smooth="yes"/>
      <point x="64" y="655"/>
      <point x="137" y="725"/>
      <point x="223" y="725" type="curve" smooth="yes"/>
      <point x="284" y="725"/>
      <point x="339" y="687"/>
      <point x="339" y="603" type="curve" smooth="yes"/>
      <point x="339" y="472"/>
      <point x="226" y="366"/>
      <point x="109" y="361" type="curve" smooth="yes"/>
      <point x="-21" y="361"/>
      <point x="-73" y="460"/>
      <point x="-73" y="553" type="curve" smooth="yes"/>
      <point x="-73" y="739"/>
      <point x="80" y="931"/>
      <point x="320" y="931" type="curve" smooth="yes"/>
      <point x="518" y="931"/>
      <point x="594" y="811"/>
      <point x="594" y="654" type="curve" smooth="yes"/>
      <point x="594" y="452"/>
      <point x="441" y="138"/>
      <point x="296" y="-1" type="curve"/>
      <point x="226" y="-32" type="line" smooth="yes"/>
      <point x="173" y="-55"/>
      <point x="181" y="-86"/>
      <point x="234" y="-55" type="curve" smooth="yes"/>
      <point x="255" y="-43"/>
      <point x="278" y="-25"/>
      <point x="301" y="-4" type="curve"/>
      <point x="344" y="15"/>
      <point x="392" y="37"/>
      <point x="421" y="51" type="curve" smooth="yes"/>
      <point x="697" y="192"/>
      <point x="1003" y="509"/>
      <point x="1003" y="765" type="curve" smooth="yes"/>
      <point x="1001" y="820"/>
      <point x="970" y="875"/>
      <point x="914" y="875" type="curve" smooth="yes"/>
      <point x="904" y="875"/>
      <point x="894" y="873"/>
      <point x="884" y="870" type="curve"/>
    </contour>
    <contour>
      <point x="234" y="-51" type="line" smooth="yes"/>
      <point x="207" y="-70"/>
      <point x="200" y="-50"/>
      <point x="226" y="-38" type="curve" smooth="yes"/>
      <point x="286" y="-10" type="line"/>
      <point x="273" y="-22"/>
      <point x="260" y="-32"/>
      <point x="248" y="-41" type="curve" smooth="yes"/>
    </contour>
  </outline>
</glyph>
<glyph name="bracketleft" format="2">
  <advance width="402"/>
  <unicode hex="005B"/>
  <outline>
    <contour>
      <point x="-95" y="-295" type="line"/>
      <point x="53" y="-295" type="line"/>
      <point x="55" y="-291" type="line"/>
      <point x="-76" y="-291" type="line"/>
      <point x="444" y="891" type="line"/>
      <point x="575" y="891" type="line"/>
      <point x="577" y="895" type="line"/>
      <point x="429" y="895" type="line"/>
    </contour>
  </outline>
</glyph>
<glyph name="d" format="2">
  <advance width="446"/>
  <unicode hex="0064"/>
  <outline>
    <contour>
      <point x="261" y="558" type="curve" smooth="yes"/>
      <point x="310" y="558"/>
      <point x="324" y="524"/>
      <point x="318" y="485" type="curve" smooth="yes"/>
      <point x="313" y="449"/>
      <point x="293" y="408"/>
      <point x="266" y="382" type="curve"/>
      <point x="267" y="379" type="line"/>
      <point x="297" y="407"/>
      <point x="321" y="449"/>
      <point x="326" y="485" type="curve" smooth="yes"/>
      <point x="332" y="527"/>
      <point x="312" y="563"/>
      <point x="261" y="563" type="curve" smooth="yes"/>
      <point x="183" y="563"/>
      <point x="65" y="438"/>
      <point x="-1" y="280" type="curve" smooth="yes"/>
      <point x="-21" y="227"/>
      <point x="-36" y="181"/>
      <point x="-43" y="131" type="curve" smooth="yes"/>
      <point x="-54" y="46"/>
      <point x="-28" y="-12"/>
      <point x="18" y="-12" type="curve" smooth="yes"/>
      <point x="64" y="-12"/>
      <point x="142" y="50"/>
      <point x="193" y="136" type="curve"/>
      <point x="167" y="59"/>
      <point x="186" y="0"/>
      <point x="224" y="0" type="curve" smooth="yes"/>
      <point x="293" y="0"/>
      <point x="388" y="146"/>
      <point x="449" y="280" type="curve"/>
      <point x="446" y="282" type="line"/>
      <point x="387" y="154"/>
      <point x="291" y="4"/>
      <point x="224" y="4" type="curve" smooth="yes"/>
      <point x="185" y="4"/>
      <point x="175" y="72"/>
      <point x="212" y="152" type="curve" smooth="yes"/>
      <point x="595" y="971" type="line"/>
      <point x="575" y="971" type="line"/>
      <point x="213" y="183" type="line"/>
      <point x="215" y="188" type="line"/>
      <point x="157" y="71"/>
      <point x="72" y="-6"/>
      <point x="20" y="-6" type="curve" smooth="yes"/>
      <point x="-23" y="-6"/>
      <point x="-37" y="45"/>
      <point x="-27" y="123" type="curve" smooth="yes"/>
      <point x="-20" y="174"/>
      <point x="-8" y="220"/>
      <point x="14" y="275" type="curve" smooth="yes"/>
      <point x="82" y="430"/>
      <point x="192" y="558"/>
    </contour>
  </outline>
</glyph>
<glyph name="f" format="2">
  <advance width="215"/>
  <unicode hex="0066"/>
  <outline>
    <contour>
      <point x="18" y="483" type="line"/>
      <point x="96" y="483" type="line"/>
      <point x="33" y="360"/>
      <point x="-24" y="233"/>
      <point x="-72" y="128" type="curve" smooth="yes"/>
      <point x="-162" y="-66"/>
      <point x="-336" y="-455"/>
      <point x="-555" y="-438" type="curve" smooth="yes"/>
      <point x="-600" y="-435"/>
      <point x="-624" y="-403"/>
      <point x="-619" y="-364" type="curve"/>
      <point x="-618" y="-344"/>
      <point x="-606" y="-307"/>
      <point x="-581" y="-304" type="curve"/>
      <point x="-584" y="-303" type="line"/>
      <point x="-608" y="-306"/>
      <point x="-628" y="-338"/>
      <point x="-630" y="-357" type="curve" smooth="yes"/>
      <point x="-634" y="-398"/>
      <point x="-608" y="-438"/>
      <point x="-556" y="-442" type="curve" smooth="yes"/>
      <point x="-437" y="-451"/>
      <point x="-338" y="-375"/>
      <point x="-256" y="-261" type="curve" smooth="yes"/>
      <point x="-176" y="-151"/>
      <point x="-113" y="-5"/>
      <point x="-55" y="125" type="curve" smooth="yes"/>
      <point x="-8" y="233"/>
      <point x="46" y="360"/>
      <point x="107" y="483" type="curve"/>
      <point x="253" y="483" type="line"/>
      <point x="253" y="487" type="line"/>
      <point x="109" y="487" type="line"/>
      <point x="189" y="648"/>
      <point x="279" y="800"/>
      <point x="373" y="890" type="curve" smooth="yes"/>
      <point x="425" y="937"/>
      <point x="496" y="976"/>
      <point x="554" y="957" type="curve" smooth="yes"/>
      <point x="569" y="952"/>
      <point x="573" y="967"/>
      <point x="561" y="970" type="curve" smooth="yes"/>
      <point x="508" y="983"/>
      <point x="426" y="945"/>
      <point x="371" y="893" type="curve" smooth="yes"/>
      <point x="275" y="802"/>
      <point x="182" y="648"/>
      <point x="98" y="487" type="curve"/>
      <point x="18" y="487" type="line"/>
    </contour>
  </outline>
</glyph>
<glyph name="h" format="2">
  <advance width="407"/>
  <unicode hex="0068"/>
  <outline>
    <contour>
      <point x="186" y="5" type="curve" smooth="yes"/>
      <point x="160" y="5"/>
      <point x="141" y="39"/>
      <point x="147" y="86" type="curve" smooth="yes"/>
      <point x="156" y="164"/>
      <point x="200" y="227"/>
      <point x="246" y="299" type="curve" smooth="yes"/>
      <point x="285" y="358"/>
      <point x="324" y="434"/>
      <point x="331" y="490" type="curve" smooth="yes"/>
      <point x="338" y="545"/>
      <point x="305" y="565"/>
      <point x="281" y="565" type="curve" smooth="yes"/>
      <point x="211" y="565"/>
      <point x="84" y="394"/>
      <point x="4" y="257" type="curve"/>
      <point x="334" y="971" type="line"/>
      <point x="317" y="971" type="line"/>
      <point x="-128" y="7" type="line"/>
      <point x="-111" y="7" type="line"/>
      <point x="-29" y="184" type="line" smooth="yes"/>
      <point x="40" y="321"/>
      <point x="201" y="560"/>
      <point x="281" y="560" type="curve" smooth="yes"/>
      <point x="303" y="560"/>
      <point x="331" y="548"/>
      <point x="324" y="493" type="curve" smooth="yes"/>
      <point x="316" y="423"/>
      <point x="268" y="371"/>
      <point x="228" y="306" type="curve" smooth="yes"/>
      <point x="183" y="235"/>
      <point x="148" y="167"/>
      <point x="139" y="92" type="curve" smooth="yes"/>
      <point x="134" y="43"/>
      <point x="156" y="0"/>
      <point x="185" y="0" type="curve" smooth="yes"/>
      <point x="254" y="0"/>
      <point x="349" y="146"/>
      <point x="410" y="280" type="curve"/>
      <point x="407" y="282" type="line"/>
      <point x="348" y="154"/>
      <point x="253" y="5"/>
    </contour>
  </outline>
</glyph>
<glyph name="i" format="2">
  <advance width="187"/>
  <unicode hex="0069"/>
  <outline>
    <contour>
      <point x="123" y="550" type="line"/>
      <point x="0" y="282" type="line"/>
      <point x="-55" y="161" type="line" smooth="yes"/>
      <point x="-95" y="72"/>
      <point x="-77" y="0"/>
      <point x="-35" y="0" type="curve" smooth="yes"/>
      <point x="34" y="0"/>
      <point x="129" y="146"/>
      <point x="190" y="280" type="curve"/>
      <point x="187" y="282" type="line"/>
      <point x="128" y="154"/>
      <point x="32" y="4"/>
      <point x="-34" y="4" type="curve" smooth="yes"/>
      <point x="-73" y="4"/>
      <point x="-83" y="72"/>
      <point x="-46" y="152" type="curve" smooth="yes"/>
      <point x="144" y="550" type="line"/>
    </contour>
    <contour>
      <point x="197" y="735" type="curve"/>
      <point x="195" y="726"/>
      <point x="199" y="717"/>
      <point x="210" y="717" type="curve" smooth="yes"/>
      <point x="220" y="717"/>
      <point x="231" y="724"/>
      <point x="234" y="735" type="curve"/>
      <point x="238" y="746"/>
      <point x="232" y="754"/>
      <point x="222" y="754" type="curve" smooth="yes"/>
      <point x="211" y="754"/>
      <point x="201" y="746"/>
    </contour>
  </outline>
</glyph>
<glyph name="l" format="2">
  <advance width="187"/>
  <unicode hex="006C"/>
  <outline>
    <contour>
      <point x="316" y="971" type="line"/>
      <point x="-55" y="161" type="line" smooth="yes"/>
      <point x="-95" y="72"/>
      <point x="-77" y="0"/>
      <point x="-35" y="0" type="curve" smooth="yes"/>
      <point x="34" y="0"/>
      <point x="129" y="146"/>
      <point x="190" y="280" type="curve"/>
      <point x="187" y="282" type="line"/>
      <point x="128" y="154"/>
      <point x="32" y="4"/>
      <point x="-34" y="4" type="curve" smooth="yes"/>
      <point x="-73" y="4"/>
      <point x="-83" y="72"/>
      <point x="-46" y="152" type="curve" smooth="yes"/>
      <point x="336" y="971" type="line"/>
    </contour>
  </outline>
</glyph>
<glyph name="t" format="2">
  <advance width="186"/>
  <unicode hex="0074"/>
  <outline>
    <contour>
      <point x="7" y="621" type="line"/>
      <point x="154" y="621" type="line"/>
      <point x="-56" y="161" type="line" smooth="yes"/>
      <point x="-97" y="72"/>
      <point x="-78" y="0"/>
      <point x="-36" y="0" type="curve" smooth="yes"/>
      <point x="33" y="0"/>
      <point x="128" y="146"/>
      <point x="189" y="280" type="curve"/>
      <point x="186" y="282" type="line"/>
      <point x="127" y="154"/>
      <point x="31" y="4"/>
      <point x="-35" y="4" type="curve" smooth="yes"/>
      <point x="-74" y="4"/>
      <point x="-84" y="72"/>
      <point x="-47" y="152" type="curve" smooth="yes"/>
      <point x="173" y="621" type="line"/>
      <point x="335" y="621" type="line"/>
      <point x="335" y="625" type="line"/>
      <point x="175" y="625" type="line"/>
      <point x="255" y="794" type="line"/>
      <point x="234" y="794" type="line"/>
      <point x="156" y="625" type="line"/>
      <point x="7" y="625" type="line"/>
    </contour>
  </outline>
</glyph>
<glyph name="w" format="2">
  <advance width="555"/>
  <unicode hex="0077"/>
  <outline>
    <contour>
      <point x="152" y="0" type="curve" smooth="yes"/>
      <point x="219" y="0"/>
      <point x="299" y="75"/>
      <point x="367" y="178" type="curve"/>
      <point x="377" y="173"/>
      <point x="389" y="171"/>
      <point x="403" y="171" type="curve" smooth="yes"/>
      <point x="443" y="171"/>
      <point x="516" y="214"/>
      <point x="558" y="280" type="curve"/>
      <point x="555" y="282" type="line"/>
      <point x="515" y="219"/>
      <point x="443" y="175"/>
      <point x="406" y="175" type="curve" smooth="yes"/>
      <point x="391" y="175"/>
      <point x="380" y="177"/>
      <point x="370" y="182" type="curve"/>
      <point x="412" y="245"/>
      <point x="449" y="319"/>
      <point x="477" y="392" type="curve" smooth="yes"/>
      <point x="505" y="461"/>
      <point x="509" y="548"/>
      <point x="469" y="548" type="curve" smooth="yes"/>
      <point x="417" y="548"/>
      <point x="334" y="414"/>
      <point x="322" y="305" type="curve" smooth="yes"/>
      <point x="317" y="258"/>
      <point x="323" y="209"/>
      <point x="354" y="185" type="curve"/>
      <point x="285" y="71"/>
      <point x="215" y="4"/>
      <point x="152" y="4" type="curve" smooth="yes"/>
      <point x="113" y="4"/>
      <point x="103" y="72"/>
      <point x="140" y="152" type="curve" smooth="yes"/>
      <point x="331" y="550" type="line"/>
      <point x="310" y="550" type="line"/>
      <point x="187" y="282" type="line"/>
      <point x="177" y="261" type="line" smooth="yes"/>
      <point x="117" y="138"/>
      <point x="28" y="4"/>
      <point x="-34" y="4" type="curve" smooth="yes"/>
      <point x="-73" y="4"/>
      <point x="-83" y="72"/>
      <point x="-46" y="152" type="curve" smooth="yes"/>
      <point x="144" y="550" type="line"/>
      <point x="123" y="550" type="line"/>
      <point x="0" y="282" type="line"/>
      <point x="-55" y="161" type="line" smooth="yes"/>
      <point x="-95" y="72"/>
      <point x="-77" y="0"/>
      <point x="-35" y="0" type="curve" smooth="yes"/>
      <point x="18" y="0"/>
      <point x="86" y="85"/>
      <point x="142" y="186" type="curve"/>
      <point x="131" y="161" type="line" smooth="yes"/>
      <point x="91" y="72"/>
      <point x="110" y="0"/>
    </contour>
    <contour>
      <point x="357" y="190" type="curve"/>
      <point x="329" y="213"/>
      <point x="324" y="258"/>
      <point x="328" y="301" type="curve" smooth="yes"/>
      <point x="340" y="412"/>
      <point x="422" y="543"/>
      <point x="469" y="543" type="curve" smooth="yes"/>
      <point x="506" y="543"/>
      <point x="488" y="459"/>
      <point x="453" y="377" type="curve" smooth="yes"/>
      <point x="421" y="306"/>
      <point x="389" y="243"/>
    </contour>
  </outline>
</glyph>
<glyph name="braceright" format="2">
  <advance width="456"/>
  <unicode hex="007D"/>
  <outline>
    <contour>
      <point x="285" y="860" type="line"/>
      <point x="314" y="843"/>
      <point x="333" y="800"/>
      <point x="333" y="735" type="curve" smooth="yes"/>
      <point x="333" y="565"/>
      <point x="202" y="457"/>
      <point x="202" y="345" type="curve" smooth="yes"/>
      <point x="202" y="320"/>
      <point x="210" y="302"/>
      <point x="223" y="288" type="curve"/>
      <point x="162" y="266"/>
      <point x="114" y="224"/>
      <point x="89" y="173" type="curve" smooth="yes"/>
      <point x="31" y="56"/>
      <point x="50" y="-32"/>
      <point x="-48" y="-190" type="curve" smooth="yes"/>
      <point x="-90" y="-257"/>
      <point x="-167" y="-309"/>
      <point x="-245" y="-309" type="curve" smooth="yes"/>
      <point x="-257" y="-309"/>
      <point x="-270" y="-307"/>
      <point x="-281" y="-303" type="curve"/>
      <point x="-284" y="-309" type="line"/>
      <point x="-272" y="-313"/>
      <point x="-259" y="-315"/>
      <point x="-245" y="-315" type="curve" smooth="yes"/>
      <point x="-167" y="-315"/>
      <point x="-72" y="-258"/>
      <point x="-30" y="-190" type="curve" smooth="yes"/>
      <point x="65" y="-35"/>
      <point x="49" y="52"/>
      <point x="108" y="174" type="curve" smooth="yes"/>
      <point x="133" y="226"/>
      <point x="171" y="265"/>
      <point x="225" y="286" type="curve"/>
      <point x="252" y="260"/>
      <point x="295" y="254"/>
      <point x="316" y="254" type="curve" smooth="yes"/>
      <point x="354" y="254"/>
      <point x="379" y="268"/>
      <point x="379" y="286" type="curve" smooth="yes"/>
      <point x="379" y="298"/>
      <point x="360" y="307"/>
      <point x="325" y="307" type="curve" smooth="yes"/>
      <point x="291" y="307"/>
      <point x="259" y="301"/>
      <point x="230" y="291" type="curve"/>
      <point x="221" y="303"/>
      <point x="216" y="319"/>
      <point x="216" y="341" type="curve" smooth="yes"/>
      <point x="216" y="444"/>
      <point x="347" y="553"/>
      <point x="347" y="726" type="curve" smooth="yes"/>
      <point x="347" y="794"/>
      <point x="319" y="848"/>
      <point x="289" y="866" type="curve"/>
    </contour>
    <contour>
      <point x="325" y="302" type="curve" smooth="yes"/>
      <point x="349" y="302"/>
      <point x="359" y="294"/>
      <point x="359" y="286" type="curve"/>
      <point x="358" y="274"/>
      <point x="342" y="262"/>
      <point x="314" y="262" type="curve" smooth="yes"/>
      <point x="293" y="262"/>
      <point x="255" y="263"/>
      <point x="233" y="288" type="curve"/>
      <point x="259" y="297"/>
      <point x="290" y="302"/>
    </contour>
  </outline>
</glyph>
<glyph name="section" format="2">
  <advance width="662"/>
  <unicode hex="00A7"/>
  <outline>
    <contour>
      <point x="501" y="580" type="curve" smooth="yes"/>
      <point x="439" y="580"/>
      <point x="367" y="539"/>
      <point x="367" y="449" type="curve" smooth="yes"/>
      <point x="367" y="358"/>
      <point x="441" y="257"/>
      <point x="441" y="153" type="curve" smooth="yes"/>
      <point x="441" y="14"/>
      <point x="309" y="-78"/>
      <point x="189" y="-78" type="curve" smooth="yes"/>
      <point x="75" y="-78"/>
      <point x="1" y="5"/>
      <point x="1" y="106" type="curve" smooth="yes"/>
      <point x="1" y="220"/>
      <point x="95" y="302"/>
      <point x="184" y="302" type="curve" smooth="yes"/>
      <point x="249" y="302"/>
      <point x="287" y="257"/>
      <point x="287" y="208" type="curve" smooth="yes"/>
      <point x="287" y="156"/>
      <point x="243" y="94"/>
      <point x="181" y="94" type="curve" smooth="yes"/>
      <point x="173" y="94"/>
      <point x="139" y="95"/>
      <point x="128" y="127" type="curve"/>
      <point x="125" y="124" type="line"/>
      <point x="137" y="95"/>
      <point x="165" y="90"/>
      <point x="184" y="90" type="curve" smooth="yes"/>
      <point x="252" y="90"/>
      <point x="294" y="156"/>
      <point x="294" y="209" type="curve" smooth="yes"/>
      <point x="294" y="263"/>
      <point x="249" y="306"/>
      <point x="182" y="306" type="curve" smooth="yes"/>
      <point x="89" y="306"/>
      <point x="-9" y="222"/>
      <point x="-9" y="106" type="curve" smooth="yes"/>
      <point x="-9" y="0"/>
      <point x="75" y="-82"/>
      <point x="191" y="-82" type="curve" smooth="yes"/>
      <point x="322" y="-82"/>
      <point x="450" y="20"/>
      <point x="450" y="158" type="curve" smooth="yes"/>
      <point x="450" y="178"/>
      <point x="447" y="197"/>
      <point x="443" y="217" type="curve"/>
      <point x="534" y="253"/>
      <point x="604" y="335"/>
      <point x="604" y="438" type="curve" smooth="yes"/>
      <point x="604" y="544"/>
      <point x="541" y="646"/>
      <point x="541" y="738" type="curve" smooth="yes"/>
      <point x="541" y="824"/>
      <point x="613" y="856"/>
      <point x="662" y="856" type="curve" smooth="yes"/>
      <point x="719" y="856"/>
      <point x="750" y="818"/>
      <point x="750" y="781" type="curve" smooth="yes"/>
      <point x="750" y="748"/>
      <point x="727" y="706"/>
      <point x="685" y="706" type="curve" smooth="yes"/>
      <point x="678" y="706"/>
      <point x="671" y="708"/>
      <point x="665" y="711" type="curve"/>
      <point x="664" y="708" type="line"/>
      <point x="673" y="704"/>
      <point x="681" y="703"/>
      <point x="688" y="703" type="curve" smooth="yes"/>
      <point x="728" y="703"/>
      <point x="759" y="743"/>
      <point x="759" y="781" type="curve" smooth="yes"/>
      <point x="759" y="817"/>
      <point x="729" y="860"/>
      <point x="666" y="860" type="curve" smooth="yes"/>
      <point x="604" y="860"/>
      <point x="532" y="819"/>
      <point x="532" y="729" type="curve" smooth="yes"/>
      <point x="532" y="671"/>
      <point x="557" y="609"/>
      <point x="576" y="544" type="curve"/>
      <point x="560" y="567"/>
      <point x="534" y="580"/>
    </contour>
    <contour>
      <point x="595" y="433" type="curve" smooth="yes"/>
      <point x="595" y="332"/>
      <point x="526" y="256"/>
      <point x="442" y="221" type="curve"/>
      <point x="423" y="304"/>
      <point x="376" y="384"/>
      <point x="376" y="458" type="curve" smooth="yes"/>
      <point x="376" y="544"/>
      <point x="447" y="576"/>
      <point x="497" y="576" type="curve" smooth="yes"/>
      <point x="537" y="576"/>
      <point x="566" y="558"/>
      <point x="579" y="531" type="curve"/>
      <point x="588" y="499"/>
      <point x="595" y="466"/>
    </contour>
  </outline>
</glyph>
<glyph name="onehalf" format="2">
  <advance width="827"/>
  <unicode hex="00BD"/>
  <outline>
    <contour>
      <point x="359" y="2" type="curve"/>
      <point x="364" y="1"/>
      <point x="368" y="0"/>
      <point x="378" y="0" type="curve" smooth="yes"/>
      <point x="392" y="0"/>
      <point x="412" y="7"/>
      <point x="436" y="20" type="curve"/>
      <point x="468" y="8"/>
      <point x="498" y="-11"/>
      <point x="550" y="-11" type="curve" smooth="yes"/>
      <point x="578" y="-11"/>
      <point x="607" y="-5"/>
      <point x="628" y="10" type="curve" smooth="yes"/>
      <point x="647" y="23"/>
      <point x="661" y="46"/>
      <point x="660" y="71" type="curve"/>
      <point x="657" y="72" type="line"/>
      <point x="660" y="52"/>
      <point x="642" y="33"/>
      <point x="621" y="20" type="curve"/>
      <point x="600" y="5"/>
      <point x="572" y="-3"/>
      <point x="546" y="-3" type="curve" smooth="yes"/>
      <point x="499" y="-3"/>
      <point x="471" y="11"/>
      <point x="441" y="22" type="curve"/>
      <point x="549" y="82"/>
      <point x="720" y="247"/>
      <point x="720" y="321" type="curve" smooth="yes"/>
      <point x="720" y="366"/>
      <point x="681" y="394"/>
      <point x="634" y="394" type="curve" smooth="yes"/>
      <point x="574" y="394"/>
      <point x="503" y="341"/>
      <point x="503" y="281" type="curve" smooth="yes"/>
      <point x="503" y="268"/>
      <point x="512" y="245"/>
      <point x="529" y="244" type="curve"/>
      <point x="530" y="246" type="line"/>
      <point x="515" y="248"/>
      <point x="512" y="265"/>
      <point x="512" y="277" type="curve" smooth="yes"/>
      <point x="512" y="335"/>
      <point x="577" y="390"/>
      <point x="634" y="390" type="curve" smooth="yes"/>
      <point x="675" y="390"/>
      <point x="710" y="372"/>
      <point x="710" y="329" type="curve" smooth="yes"/>
      <point x="710" y="257"/>
      <point x="537" y="85"/>
      <point x="434" y="25" type="curve"/>
      <point x="418" y="30"/>
      <point x="402" y="34"/>
      <point x="382" y="34" type="curve" smooth="yes"/>
      <point x="362" y="34"/>
      <point x="349" y="24"/>
      <point x="349" y="16" type="curve" smooth="yes"/>
      <point x="349" y="11"/>
      <point x="353" y="5"/>
    </contour>
    <contour>
      <point x="178" y="417" type="line"/>
      <point x="174" y="431"/>
      <point x="172" y="444"/>
      <point x="172" y="456" type="curve" smooth="yes"/>
      <point x="174" y="527"/>
      <point x="250" y="581"/>
      <point x="314" y="621" type="curve"/>
      <point x="260" y="545"/>
      <point x="193" y="417"/>
      <point x="148" y="300" type="curve"/>
      <point x="161" y="300" type="line"/>
      <point x="208" y="422"/>
      <point x="271" y="552"/>
      <point x="321" y="625" type="curve"/>
      <point x="341" y="637" type="line" smooth="yes"/>
      <point x="358" y="648"/>
      <point x="379" y="662"/>
      <point x="388" y="670" type="curve" smooth="yes"/>
      <point x="400" y="680"/>
      <point x="396" y="690"/>
      <point x="386" y="690" type="curve" smooth="yes"/>
      <point x="371" y="690"/>
      <point x="347" y="665"/>
      <point x="318" y="626" type="curve"/>
      <point x="256" y="587"/>
      <point x="172" y="537"/>
      <point x="170" y="462" type="curve" smooth="yes"/>
      <point x="169" y="448"/>
      <point x="172" y="432"/>
      <point x="177" y="418" type="curve"/>
    </contour>
    <contour>
      <point x="367" y="7" type="curve"/>
      <point x="365" y="10"/>
      <point x="365" y="13"/>
      <point x="365" y="15" type="curve" smooth="yes"/>
      <point x="365" y="21"/>
      <point x="373" y="29"/>
      <point x="388" y="29" type="curve" smooth="yes"/>
      <point x="403" y="29"/>
      <point x="416" y="26"/>
      <point x="429" y="22" type="curve"/>
      <point x="408" y="10"/>
      <point x="390" y="4"/>
      <point x="378" y="4" type="curve" smooth="yes"/>
      <point x="374" y="4"/>
      <point x="370" y="6"/>
    </contour>
    <contour>
      <point x="380" y="682" type="curve" smooth="yes"/>
      <point x="388" y="682"/>
      <point x="390" y="675"/>
      <point x="381" y="668" type="curve"/>
      <point x="372" y="660"/>
      <point x="357" y="650"/>
      <point x="340" y="640" type="curve" smooth="yes"/>
      <point x="324" y="630" type="line"/>
      <point x="347" y="662"/>
      <point x="367" y="682"/>
    </contour>
    <contour>
      <point x="152" y="-123" type="line"/>
      <point x="152" y="-123"/>
      <point x="609" y="773"/>
      <point x="609" y="773" type="curve"/>
      <point x="605" y="775" type="line"/>
      <point x="605" y="775"/>
      <point x="148" y="-121"/>
      <point x="148" y="-121" type="curve"/>
    </contour>
  </outline>
</glyph>
<glyph name="Ocircumflex" format="2">
  <advance width="879"/>
  <unicode hex="00D4"/>
  <outline>
    <contour>
      <point x="600" y="592" type="line"/>
      <point x="612" y="572"/>
      <point x="616" y="551"/>
      <point x="616" y="529" type="curve" smooth="yes"/>
      <point x="616" y="416"/>
      <point x="509" y="306"/>
      <point x="393" y="306" type="curve" smooth="yes"/>
      <point x="308" y="306"/>
      <point x="237" y="363"/>
      <point x="237" y="487" type="curve" smooth="yes"/>
      <point x="237" y="700"/>
      <point x="434" y="877"/>
      <point x="647" y="877" type="curve" smooth="yes"/>
      <point x="809" y="877"/>
      <point x="877" y="753"/>
      <point x="877" y="615" type="curve" smooth="yes"/>
      <point x="877" y="325"/>
      <point x="595" y="-87"/>
      <point x="262" y="-87" type="curve" smooth="yes"/>
      <point x="78" y="-87"/>
      <point x="-11" y="58"/>
      <point x="-11" y="238" type="curve" smooth="yes"/>
      <point x="-11" y="576"/>
      <point x="329" y="942"/>
      <point x="628" y="942" type="curve"/>
      <point x="626" y="946" type="line"/>
      <point x="329" y="946"/>
      <point x="-24" y="604"/>
      <point x="-24" y="253" type="curve" smooth="yes"/>
      <point x="-24" y="67"/>
      <point x="70" y="-96"/>
      <point x="271" y="-96" type="curve" smooth="yes"/>
      <point x="604" y="-96"/>
      <point x="887" y="309"/>
      <point x="887" y="595" type="curve" smooth="yes"/>
      <point x="887" y="747"/>
      <point x="812" y="883"/>
      <point x="647" y="883" type="curve" smooth="yes"/>
      <point x="431" y="883"/>
      <point x="223" y="708"/>
      <point x="223" y="496" type="curve" smooth="yes"/>
      <point x="223" y="369"/>
      <point x="296" y="301"/>
      <point x="387" y="301" type="curve" smooth="yes"/>
      <point x="513" y="301"/>
      <point x="629" y="413"/>
      <point x="629" y="528" type="curve" smooth="yes"/>
      <point x="629" y="553"/>
      <point x="619" y="575"/>
      <point x="605" y="596" type="curve"/>
    </contour>
    <contour>
      <point x="647" y="1108" type="line"/>
      <point x="647" y="1108"/>
      <point x="779" y="1207"/>
      <point x="794" y="1218" type="curve"/>
      <point x="794" y="1218"/>
      <point x="848" y="1112"/>
      <point x="848" y="1112" type="curve"/>
      <point x="851" y="1114" type="line"/>
      <point x="851" y="1114"/>
      <point x="809" y="1246"/>
      <point x="809" y="1246" type="curve"/>
      <point x="809" y="1246"/>
      <point x="645" y="1111"/>
      <point x="645" y="1111" type="curve"/>
    </contour>
  </outline>
</glyph>
<glyph name="ae" format="2">
  <advance width="604"/>
  <unicode hex="00E6"/>
  <outline>
    <contour>
      <point x="261" y="558" type="curve" smooth="yes"/>
      <point x="310" y="558"/>
      <point x="324" y="524"/>
      <point x="318" y="485" type="curve" smooth="yes"/>
      <point x="313" y="449"/>
      <point x="293" y="408"/>
      <point x="266" y="382" type="curve"/>
      <point x="267" y="379" type="line"/>
      <point x="297" y="407"/>
      <point x="321" y="449"/>
      <point x="326" y="485" type="curve" smooth="yes"/>
      <point x="332" y="527"/>
      <point x="312" y="563"/>
      <point x="261" y="563" type="curve" smooth="yes"/>
      <point x="183" y="563"/>
      <point x="65" y="438"/>
      <point x="-1" y="280" type="curve" smooth="yes"/>
      <point x="-21" y="227"/>
      <point x="-36" y="181"/>
      <point x="-43" y="131" type="curve" smooth="yes"/>
      <point x="-54" y="46"/>
      <point x="-28" y="-12"/>
      <point x="18" y="-12" type="curve" smooth="yes"/>
      <point x="71" y="-12"/>
      <point x="171" y="80"/>
      <point x="239" y="224" type="curve"/>
      <point x="235" y="208"/>
      <point x="231" y="191"/>
      <point x="229" y="175" type="curve" smooth="yes"/>
      <point x="209" y="60"/>
      <point x="247" y="-12"/>
      <point x="315" y="-12" type="curve" smooth="yes"/>
      <point x="430" y="-12"/>
      <point x="540" y="140"/>
      <point x="607" y="280" type="curve"/>
      <point x="604" y="282" type="line"/>
      <point x="539" y="145"/>
      <point x="429" y="-6"/>
      <point x="315" y="-6" type="curve" smooth="yes"/>
      <point x="258" y="-6"/>
      <point x="225" y="57"/>
      <point x="243" y="167" type="curve" smooth="yes"/>
      <point x="254" y="230"/>
      <point x="278" y="292"/>
      <point x="308" y="348" type="curve"/>
      <point x="310" y="325"/>
      <point x="336" y="292"/>
      <point x="383" y="292" type="curve" smooth="yes"/>
      <point x="465" y="292"/>
      <point x="570" y="403"/>
      <point x="579" y="491" type="curve" smooth="yes"/>
      <point x="584" y="525"/>
      <point x="565" y="563"/>
      <point x="526" y="563" type="curve" smooth="yes"/>
      <point x="448" y="563"/>
      <point x="310" y="431"/>
      <point x="251" y="263" type="curve" smooth="yes"/>
      <point x="190" y="112"/>
      <point x="80" y="-6"/>
      <point x="20" y="-6" type="curve" smooth="yes"/>
      <point x="-23" y="-6"/>
      <point x="-37" y="45"/>
      <point x="-27" y="123" type="curve" smooth="yes"/>
      <point x="-20" y="174"/>
      <point x="-8" y="220"/>
      <point x="14" y="275" type="curve" smooth="yes"/>
      <point x="82" y="430"/>
      <point x="192" y="558"/>
    </contour>
    <contour>
      <point x="569" y="498" type="curve" smooth="yes"/>
      <point x="558" y="404"/>
      <point x="456" y="297"/>
      <point x="378" y="297" type="curve" smooth="yes"/>
      <point x="337" y="297"/>
      <point x="312" y="330"/>
      <point x="312" y="351" type="curve"/>
      <point x="309" y="351" type="line"/>
      <point x="373" y="469"/>
      <point x="466" y="558"/>
      <point x="525" y="558" type="curve" smooth="yes"/>
      <point x="559" y="558"/>
      <point x="572" y="530"/>
    </contour>
  </outline>
</glyph>
<glyph name="ydieresis" format="2">
  <advance width="570"/>
  <unicode hex="00FF"/>
  <outline>
    <contour>
      <point x="228" y="565" type="curve" smooth="yes"/>
      <point x="158" y="565"/>
      <point x="62" y="416"/>
      <point x="0" y="282" type="curve"/>
      <point x="3" y="280" type="line"/>
      <point x="63" y="408"/>
      <point x="160" y="560"/>
      <point x="228" y="560" type="curve" smooth="yes"/>
      <point x="250" y="560"/>
      <point x="278" y="548"/>
      <point x="271" y="493" type="curve" smooth="yes"/>
      <point x="263" y="423"/>
      <point x="217" y="370"/>
      <point x="175" y="306" type="curve" smooth="yes"/>
      <point x="134" y="244"/>
      <point x="101" y="181"/>
      <point x="92" y="116" type="curve" smooth="yes"/>
      <point x="87" y="67"/>
      <point x="109" y="24"/>
      <point x="145" y="24" type="curve" smooth="yes"/>
      <point x="210" y="24"/>
      <point x="287" y="108"/>
      <point x="352" y="203" type="curve"/>
      <point x="341" y="172" type="line" smooth="yes"/>
      <point x="323" y="123"/>
      <point x="303" y="75"/>
      <point x="282" y="30" type="curve"/>
      <point x="264" y="23" type="line" smooth="yes"/>
      <point x="169" y="-16"/>
      <point x="66" y="-43"/>
      <point x="7" y="-77" type="curve" smooth="yes"/>
      <point x="-34" y="-100"/>
      <point x="-60" y="-125"/>
      <point x="-60" y="-159" type="curve" smooth="yes"/>
      <point x="-60" y="-191"/>
      <point x="-31" y="-215"/>
      <point x="13" y="-215" type="curve" smooth="yes"/>
      <point x="85" y="-215"/>
      <point x="200" y="-159"/>
      <point x="273" y="-24" type="curve" smooth="yes"/>
      <point x="283" y="-6"/>
      <point x="292" y="14"/>
      <point x="300" y="35" type="curve"/>
      <point x="412" y="85"/>
      <point x="519" y="158"/>
      <point x="573" y="280" type="curve"/>
      <point x="570" y="282" type="line"/>
      <point x="518" y="164"/>
      <point x="413" y="90"/>
      <point x="302" y="39" type="curve"/>
      <point x="327" y="99"/>
      <point x="348" y="166"/>
      <point x="370" y="229" type="curve"/>
      <point x="412" y="294"/>
      <point x="448" y="361"/>
      <point x="472" y="408" type="curve" smooth="yes"/>
      <point x="520" y="496"/>
      <point x="551" y="565"/>
      <point x="529" y="565" type="curve" smooth="yes"/>
      <point x="513" y="565"/>
      <point x="470" y="520"/>
      <point x="404" y="357" type="curve" smooth="yes"/>
      <point x="387" y="317"/>
      <point x="374" y="270"/>
      <point x="358" y="222" type="curve"/>
      <point x="292" y="122"/>
      <point x="212" y="29"/>
      <point x="145" y="29" type="curve" smooth="yes"/>
      <point x="116" y="29"/>
      <point x="94" y="63"/>
      <point x="100" y="110" type="curve" smooth="yes"/>
      <point x="109" y="178"/>
      <point x="149" y="236"/>
      <point x="193" y="299" type="curve" smooth="yes"/>
      <point x="234" y="357"/>
      <point x="271" y="434"/>
      <point x="278" y="490" type="curve" smooth="yes"/>
      <point x="285" y="545"/>
      <point x="252" y="565"/>
    </contour>
    <contour>
      <point x="255" y="-23" type="line" smooth="yes"/>
      <point x="187" y="-152"/>
      <point x="85" y="-210"/>
      <point x="20" y="-210" type="curve" smooth="yes"/>
      <point x="-21" y="-210"/>
      <point x="-44" y="-191"/>
      <point x="-44" y="-159" type="curve" smooth="yes"/>
      <point x="-44" y="-142"/>
      <point x="-37" y="-125"/>
      <point x="-25" y="-111" type="curve" smooth="yes"/>
      <point x="22" y="-60"/>
      <point x="151" y="-29"/>
      <point x="279" y="26" type="curve"/>
    </contour>
    <contour>
      <point x="421" y="357" type="curve"/>
      <point x="496" y="530"/>
      <point x="521" y="560"/>
      <point x="529" y="560" type="curve" smooth="yes"/>
      <point x="543" y="560"/>
      <point x="516" y="497"/>
      <point x="468" y="411" type="curve" smooth="yes"/>
      <point x="447" y="370"/>
      <point x="415" y="311"/>
      <point x="377" y="250" type="curve"/>
      <point x="391" y="290"/>
      <point x="405" y="326"/>
    </contour>
    <contour>
      <point x="393" y="735" type="curve"/>
      <point x="391" y="726"/>
      <point x="395" y="717"/>
      <point x="406" y="717" type="curve" smooth="yes"/>
      <point x="416" y="717"/>
      <point x="427" y="724"/>
      <point x="430" y="735" type="curve"/>
      <point x="434" y="746"/>
      <point x="428" y="754"/>
      <point x="418" y="754" type="curve" smooth="yes"/>
      <point x="407" y="754"/>
      <point x="397" y="746"/>
    </contour>
    <contour>
      <point x="498" y="735" type="curve"/>
      <point x="496" y="726"/>
      <point x="500" y="717"/>
      <point x="511" y="717" type="curve" smooth="yes"/>
      <point x="521" y="717"/>
      <point x="532" y="724"/>
      <point x="535" y="735" type="curve"/>
      <point x="539" y="746"/>
      <point x="533" y="754"/>
      <point x="523" y="754" type="curve" smooth="yes"/>
      <point x="512" y="754"/>
      <point x="502" y="746"/>
    </contour>
  </outline>
</glyph>
<glyph name="imacron" format="2">
  <advance width="187"/>
  <unicode hex="012B"/>
  <outline>
    <contour>
      <point x="123" y="550" type="line"/>
      <point x="0" y="282" type="line"/>
      <point x="-55" y="161" type="line" smooth="yes"/>
      <point x="-95" y="72"/>
      <point x="-77" y="0"/>
      <point x="-35" y="0" type="curve" smooth="yes"/>
      <point x="34" y="0"/>
      <point x="129" y="146"/>
      <point x="190" y="280" type="curve"/>
      <point x="187" y="282" type="line"/>
      <point x="128" y="154"/>
      <point x="32" y="4"/>
      <point x="-34" y="4" type="curve" smooth="yes"/>
      <point x="-73" y="4"/>
      <point x="-83" y="72"/>
      <point x="-46" y="152" type="curve" smooth="yes"/>
      <point x="144" y="550" type="line"/>
    </contour>
    <contour>
      <point x="44" y="708" type="line"/>
      <point x="44" y="708"/>
      <point x="300" y="708"/>
      <point x="300" y="708" type="curve"/>
      <point x="300" y="714" type="line"/>
      <point x="300" y="714"/>
      <point x="44" y="714"/>
      <point x="44" y="714" type="curve"/>
    </contour>
  </outline>
</glyph>
<glyph name="Iogonek" format="2">
  <advance width="602"/>
  <unicode hex="012E"/>
  <outline>
    <contour>
      <point x="613" y="936" type="curve" smooth="yes"/>
      <point x="330" y="936"/>
      <point x="104" y="673"/>
      <point x="108" y="466" type="curve" smooth="yes"/>
      <point x="110" y="357"/>
      <point x="170" y="237"/>
      <point x="311" y="237" type="curve" smooth="yes"/>
      <point x="316" y="237" type="line"/>
      <point x="231" y="105"/>
      <point x="104" y="-51"/>
      <point x="-50" y="-42" type="curve" smooth="yes"/>
      <point x="-107" y="-39"/>
      <point x="-199" y="16"/>
      <point x="-159" y="118" type="curve"/>
      <point x="-160" y="119" type="line"/>
      <point x="-206" y="6"/>
      <point x="-115" y="-46"/>
      <point x="-50" y="-49" type="curve" smooth="yes"/>
      <point x="-7" y="-51"/>
      <point x="31" y="-45"/>
      <point x="66" y="-33" type="curve"/>
      <point x="35" y="-55"/>
      <point x="23" y="-82"/>
      <point x="23" y="-105" type="curve" smooth="yes"/>
      <point x="23" y="-133"/>
      <point x="45" y="-157"/>
      <point x="78" y="-157" type="curve" smooth="yes"/>
      <point x="87" y="-157"/>
      <point x="96" y="-155"/>
      <point x="105" y="-152" type="curve"/>
      <point x="103" y="-148" type="line"/>
      <point x="94" y="-151"/>
      <point x="85" y="-153"/>
      <point x="78" y="-153" type="curve" smooth="yes"/>
      <point x="52" y="-153"/>
      <point x="37" y="-134"/>
      <point x="37" y="-111" type="curve" smooth="yes"/>
      <point x="37" y="-81"/>
      <point x="51" y="-46"/>
      <point x="96" y="-21" type="curve" smooth="yes"/>
      <point x="111" y="-13" type="line"/>
      <point x="112" y="-13" type="line"/>
      <point x="208" y="39"/>
      <point x="279" y="138"/>
      <point x="341" y="239" type="curve"/>
      <point x="469" y="254"/>
      <point x="586" y="369"/>
      <point x="583" y="503" type="curve" smooth="yes"/>
      <point x="582" y="547"/>
      <point x="566" y="580"/>
      <point x="543" y="604" type="curve"/>
      <point x="593" y="684"/>
      <point x="650" y="753"/>
      <point x="716" y="774" type="curve" smooth="yes"/>
      <point x="751" y="786"/>
      <point x="808" y="811"/>
      <point x="807" y="854" type="curve" smooth="yes"/>
      <point x="806" y="909"/>
      <point x="714" y="936"/>
    </contour>
    <contour>
      <point x="622" y="931" type="curve" smooth="yes"/>
      <point x="721" y="931"/>
      <point x="792" y="902"/>
      <point x="793" y="849" type="curve" smooth="yes"/>
      <point x="794" y="812"/>
      <point x="749" y="791"/>
      <point x="716" y="780" type="curve" smooth="yes"/>
      <point x="650" y="755"/>
      <point x="590" y="688"/>
      <point x="536" y="610" type="curve"/>
      <point x="510" y="632"/>
      <point x="476" y="643"/>
      <point x="441" y="643" type="curve" smooth="yes"/>
      <point x="346" y="643"/>
      <point x="259" y="566"/>
      <point x="261" y="487" type="curve" smooth="yes"/>
      <point x="261" y="469"/>
      <point x="268" y="453"/>
      <point x="281" y="438" type="curve"/>
      <point x="285" y="440" type="line"/>
      <point x="273" y="453"/>
      <point x="270" y="468"/>
      <point x="270" y="484" type="curve" smooth="yes"/>
      <point x="268" y="562"/>
      <point x="348" y="638"/>
      <point x="440" y="638" type="curve" smooth="yes"/>
      <point x="474" y="638"/>
      <point x="508" y="627"/>
      <point x="532" y="603" type="curve"/>
      <point x="466" y="506"/>
      <point x="410" y="392"/>
      <point x="368" y="321" type="curve" smooth="yes"/>
      <point x="354" y="297"/>
      <point x="337" y="269"/>
      <point x="319" y="241" type="curve"/>
      <point x="312" y="241" type="line" smooth="yes"/>
      <point x="173" y="241"/>
      <point x="119" y="352"/>
      <point x="117" y="452" type="curve" smooth="yes"/>
      <point x="113" y="658"/>
      <point x="343" y="931"/>
    </contour>
    <contour>
      <point x="398" y="335" type="line" smooth="yes"/>
      <point x="435" y="399"/>
      <point x="482" y="505"/>
      <point x="538" y="597" type="curve"/>
      <point x="557" y="575"/>
      <point x="570" y="544"/>
      <point x="571" y="504" type="curve" smooth="yes"/>
      <point x="574" y="371"/>
      <point x="465" y="259"/>
      <point x="343" y="243" type="curve"/>
    </contour>
  </outline>
</glyph>
<glyph name="kcommaaccent" format="2">
  <advance width="476"/>
  <unicode hex="0137"/>
  <outline>
    <contour>
      <point x="31" y="-138" type="curve" smooth="yes"/>
      <point x="16" y="-138"/>
      <point x="2" y="-151"/>
      <point x="2" y="-165" type="curve" smooth="yes"/>
      <point x="2" y="-173"/>
      <point x="6" y="-181"/>
      <point x="17" y="-181" type="curve" smooth="yes"/>
      <point x="19" y="-181"/>
      <point x="23" y="-181"/>
      <point x="25" y="-180" type="curve"/>
      <point x="26" y="-183"/>
      <point x="28" y="-187"/>
      <point x="24" y="-194" type="curve"/>
      <point x="10" y="-214"/>
      <point x="-5" y="-232"/>
      <point x="-25" y="-246" type="curve"/>
      <point x="-23" y="-250" type="line"/>
      <point x="6" y="-230"/>
      <point x="47" y="-189"/>
      <point x="47" y="-159" type="curve" smooth="yes"/>
      <point x="47" y="-146"/>
      <point x="39" y="-138"/>
    </contour>
    <contour>
      <point x="-111" y="7" type="line"/>
      <point x="-24" y="196" type="line" smooth="yes"/>
      <point x="51" y="346"/>
      <point x="214" y="590"/>
      <point x="302" y="590" type="curve" smooth="yes"/>
      <point x="326" y="590"/>
      <point x="357" y="578"/>
      <point x="357" y="514" type="curve" smooth="yes"/>
      <point x="357" y="438"/>
      <point x="293" y="334"/>
      <point x="211" y="334" type="curve" smooth="yes"/>
      <point x="197" y="334"/>
      <point x="176" y="339"/>
      <point x="163" y="363" type="curve"/>
      <point x="161" y="357" type="line"/>
      <point x="162" y="354"/>
      <point x="163" y="352"/>
      <point x="165" y="350" type="curve"/>
      <point x="161" y="342"/>
      <point x="158" y="334"/>
      <point x="154" y="327" type="curve" smooth="yes"/>
      <point x="116" y="265"/>
      <point x="90" y="212"/>
      <point x="90" y="133" type="curve" smooth="yes"/>
      <point x="90" y="55"/>
      <point x="123" y="0"/>
      <point x="177" y="0" type="curve" smooth="yes"/>
      <point x="262" y="0"/>
      <point x="358" y="146"/>
      <point x="419" y="280" type="curve"/>
      <point x="416" y="282" type="line"/>
      <point x="357" y="154"/>
      <point x="260" y="5"/>
      <point x="178" y="5" type="curve" smooth="yes"/>
      <point x="88" y="5"/>
      <point x="83" y="177"/>
      <point x="163" y="332" type="curve"/>
      <point x="166" y="337"/>
      <point x="170" y="341"/>
      <point x="180" y="337" type="curve"/>
      <point x="193" y="329"/>
      <point x="209" y="327"/>
      <point x="221" y="327" type="curve" smooth="yes"/>
      <point x="318" y="327"/>
      <point x="374" y="438"/>
      <point x="374" y="503" type="curve" smooth="yes"/>
      <point x="374" y="566"/>
      <point x="338" y="596"/>
      <point x="305" y="596" type="curve" smooth="yes"/>
      <point x="227" y="596"/>
      <point x="95" y="419"/>
      <point x="11" y="271" type="curve"/>
      <point x="334" y="971" type="line"/>
      <point x="317" y="971" type="line"/>
      <point x="-128" y="7" type="line"/>
    </contour>
  </outline>
</glyph>
<glyph name="rcommaaccent" format="2">
  <advance width="340"/>
  <unicode hex="0157"/>
  <outline>
    <contour>
      <point x="-115" y="-138" type="curve" smooth="yes"/>
      <point x="-130" y="-138"/>
      <point x="-144" y="-151"/>
      <point x="-144" y="-165" type="curve" smooth="yes"/>
      <point x="-144" y="-173"/>
      <point x="-140" y="-181"/>
      <point x="-129" y="-181" type="curve" smooth="yes"/>
      <point x="-127" y="-181"/>
      <point x="-123" y="-181"/>
      <point x="-121" y="-180" type="curve"/>
      <point x="-120" y="-183"/>
      <point x="-118" y="-187"/>
      <point x="-122" y="-194" type="curve"/>
      <point x="-136" y="-214"/>
      <point x="-151" y="-232"/>
      <point x="-171" y="-246" type="curve"/>
      <point x="-169" y="-250" type="line"/>
      <point x="-140" y="-230"/>
      <point x="-99" y="-189"/>
      <point x="-99" y="-159" type="curve" smooth="yes"/>
      <point x="-99" y="-146"/>
      <point x="-107" y="-138"/>
    </contour>
    <contour>
      <point x="3" y="280" type="line"/>
      <point x="78" y="428"/>
      <point x="146" y="554"/>
      <point x="182" y="649" type="curve"/>
      <point x="215" y="603"/>
      <point x="255" y="562"/>
      <point x="252" y="496" type="curve" smooth="yes"/>
      <point x="249" y="429"/>
      <point x="200" y="370"/>
      <point x="161" y="306" type="curve" smooth="yes"/>
      <point x="116" y="235"/>
      <point x="81" y="167"/>
      <point x="72" y="92" type="curve" smooth="yes"/>
      <point x="67" y="43"/>
      <point x="89" y="0"/>
      <point x="118" y="0" type="curve" smooth="yes"/>
      <point x="187" y="0"/>
      <point x="282" y="146"/>
      <point x="343" y="280" type="curve"/>
      <point x="340" y="282" type="line"/>
      <point x="281" y="154"/>
      <point x="186" y="5"/>
      <point x="119" y="5" type="curve" smooth="yes"/>
      <point x="93" y="5"/>
      <point x="74" y="39"/>
      <point x="80" y="86" type="curve" smooth="yes"/>
      <point x="89" y="164"/>
      <point x="133" y="227"/>
      <point x="179" y="299" type="curve" smooth="yes"/>
      <point x="218" y="358"/>
      <point x="256" y="437"/>
      <point x="259" y="496" type="curve" smooth="yes"/>
      <point x="262" y="568"/>
      <point x="217" y="607"/>
      <point x="183" y="653" type="curve"/>
      <point x="198" y="692"/>
      <point x="206" y="726"/>
      <point x="208" y="754" type="curve" smooth="yes"/>
      <point x="211" y="806"/>
      <point x="194" y="831"/>
      <point x="178" y="831" type="curve" smooth="yes"/>
      <point x="163" y="831"/>
      <point x="142" y="816"/>
      <point x="140" y="768" type="curve" smooth="yes"/>
      <point x="137" y="721"/>
      <point x="156" y="686"/>
      <point x="179" y="653" type="curve"/>
      <point x="144" y="559"/>
      <point x="75" y="432"/>
      <point x="0" y="282" type="curve"/>
    </contour>
    <contour>
      <point x="148" y="757" type="curve" smooth="yes"/>
      <point x="151" y="803"/>
      <point x="168" y="825"/>
      <point x="181" y="825" type="curve" smooth="yes"/>
      <point x="195" y="825"/>
      <point x="207" y="804"/>
      <point x="204" y="754" type="curve" smooth="yes"/>
      <point x="202" y="727"/>
      <point x="194" y="695"/>
      <point x="180" y="657" type="curve"/>
      <point x="161" y="685"/>
      <point x="146" y="715"/>
    </contour>
  </outline>
</glyph>
<glyph name="Scaron" format="2">
  <advance width="909"/>
  <unicode hex="0160"/>
  <outline>
    <contour>
      <point x="467" y="840" type="line"/>
      <point x="422" y="829"/>
      <point x="397" y="760"/>
      <point x="397" y="717" type="curve" smooth="yes"/>
      <point x="397" y="585"/>
      <point x="510" y="504"/>
      <point x="653" y="500" type="curve" smooth="yes"/>
      <point x="710" y="499"/>
      <point x="764" y="511"/>
      <point x="812" y="533" type="curve"/>
      <point x="798" y="408"/>
      <point x="785" y="278"/>
      <point x="734" y="171" type="curve" smooth="yes"/>
      <point x="654" y="-3"/>
      <point x="491" y="-117"/>
      <point x="319" y="-117" type="curve" smooth="yes"/>
      <point x="129" y="-117"/>
      <point x="6" y="21"/>
      <point x="6" y="202" type="curve" smooth="yes"/>
      <point x="6" y="384"/>
      <point x="164" y="527"/>
      <point x="312" y="527" type="curve" smooth="yes"/>
      <point x="423" y="527"/>
      <point x="488" y="449"/>
      <point x="488" y="368" type="curve" smooth="yes"/>
      <point x="488" y="280"/>
      <point x="412" y="175"/>
      <point x="309" y="175" type="curve" smooth="yes"/>
      <point x="294" y="175"/>
      <point x="238" y="177"/>
      <point x="220" y="229" type="curve"/>
      <point x="214" y="226" type="line"/>
      <point x="236" y="177"/>
      <point x="282" y="168"/>
      <point x="313" y="168" type="curve" smooth="yes"/>
      <point x="428" y="168"/>
      <point x="499" y="280"/>
      <point x="499" y="369" type="curve" smooth="yes"/>
      <point x="499" y="459"/>
      <point x="424" y="533"/>
      <point x="311" y="533" type="curve" smooth="yes"/>
      <point x="153" y="533"/>
      <point x="-12" y="391"/>
      <point x="-12" y="197" type="curve" smooth="yes"/>
      <point x="-12" y="16"/>
      <point x="130" y="-122"/>
      <point x="324" y="-122" type="curve" smooth="yes"/>
      <point x="492" y="-122"/>
      <point x="667" y="-17"/>
      <point x="752" y="160" type="curve" smooth="yes"/>
      <point x="807" y="276"/>
      <point x="807" y="406"/>
      <point x="819" y="536" type="curve"/>
      <point x="966" y="607"/>
      <point x="1063" y="765"/>
      <point x="1063" y="883" type="curve" smooth="yes"/>
      <point x="1063" y="921"/>
      <point x="1044" y="957"/>
      <point x="1012" y="957" type="curve" smooth="yes"/>
      <point x="974" y="957"/>
      <point x="933" y="925"/>
      <point x="898" y="869" type="curve" smooth="yes"/>
      <point x="843" y="781"/>
      <point x="827" y="663"/>
      <point x="813" y="542" type="curve"/>
      <point x="765" y="518"/>
      <point x="710" y="504"/>
      <point x="652" y="506" type="curve" smooth="yes"/>
      <point x="514" y="509"/>
      <point x="408" y="595"/>
      <point x="408" y="727" type="curve" smooth="yes"/>
      <point x="408" y="763"/>
      <point x="426" y="827"/>
      <point x="467" y="838" type="curve"/>
    </contour>
    <contour>
      <point x="911" y="862" type="curve" smooth="yes"/>
      <point x="947" y="919"/>
      <point x="983" y="953"/>
      <point x="1012" y="953" type="curve" smooth="yes"/>
      <point x="1039" y="953"/>
      <point x="1051" y="922"/>
      <point x="1051" y="893" type="curve" smooth="yes"/>
      <point x="1051" y="774"/>
      <point x="960" y="617"/>
      <point x="819" y="545" type="curve"/>
      <point x="829" y="653"/>
      <point x="847" y="761"/>
    </contour>
    <contour>
      <point x="1083" y="1246" type="line"/>
      <point x="1083" y="1246"/>
      <point x="945" y="1147"/>
      <point x="930" y="1136" type="curve"/>
      <point x="930" y="1136"/>
      <point x="882" y="1242"/>
      <point x="882" y="1242" type="curve"/>
      <point x="879" y="1240" type="line"/>
      <point x="879" y="1240"/>
      <point x="921" y="1108"/>
      <point x="921" y="1108" type="curve"/>
      <point x="921" y="1108"/>
      <point x="1085" y="1243"/>
      <point x="1085" y="1243" type="curve"/>
    </contour>
  </outline>
</glyph>
<glyph name="scaron" format="2">
  <advance width="296"/>
  <unicode hex="0161"/>
  <outline>
    <contour>
      <point x="200" y="326" type="curve" smooth="yes"/>
      <point x="200" y="386"/>
      <point x="185" y="428"/>
      <point x="185" y="487" type="curve" smooth="yes"/>
      <point x="185" y="527"/>
      <point x="193" y="570"/>
      <point x="239" y="599" type="curve"/>
      <point x="259" y="608"/>
      <point x="274" y="608"/>
      <point x="302" y="600" type="curve"/>
      <point x="302" y="619" type="line"/>
      <point x="177" y="619"/>
      <point x="66" y="426"/>
      <point x="0" y="282" type="curve"/>
      <point x="3" y="280" type="line"/>
      <point x="54" y="391"/>
      <point x="131" y="530"/>
      <point x="220" y="588" type="curve"/>
      <point x="187" y="559"/>
      <point x="181" y="521"/>
      <point x="181" y="487" type="curve" smooth="yes"/>
      <point x="181" y="332" type="line" smooth="yes"/>
      <point x="181" y="282"/>
      <point x="166" y="223"/>
      <point x="140" y="168" type="curve" smooth="yes"/>
      <point x="95" y="74"/>
      <point x="18" y="-8"/>
      <point x="-75" y="-8" type="curve" smooth="yes"/>
      <point x="-119" y="-8"/>
      <point x="-142" y="30"/>
      <point x="-139" y="78" type="curve" smooth="yes"/>
      <point x="-136" y="148"/>
      <point x="-72" y="274"/>
      <point x="15" y="266" type="curve" smooth="yes"/>
      <point x="39" y="264"/>
      <point x="56" y="239"/>
      <point x="54" y="207" type="curve" smooth="yes"/>
      <point x="53" y="188"/>
      <point x="47" y="166"/>
      <point x="34" y="146" type="curve"/>
      <point x="39" y="144" type="line"/>
      <point x="57" y="167"/>
      <point x="68" y="191"/>
      <point x="69" y="212" type="curve" smooth="yes"/>
      <point x="70" y="245"/>
      <point x="47" y="268"/>
      <point x="16" y="270" type="curve" smooth="yes"/>
      <point x="-82" y="279"/>
      <point x="-151" y="146"/>
      <point x="-154" y="84" type="curve" smooth="yes"/>
      <point x="-157" y="33"/>
      <point x="-126" y="-12"/>
      <point x="-75" y="-12" type="curve" smooth="yes"/>
      <point x="24" y="-12"/>
      <point x="108" y="60"/>
      <point x="156" y="152" type="curve" smooth="yes"/>
      <point x="185" y="207"/>
      <point x="200" y="271"/>
    </contour>
    <contour>
      <point x="342" y="814" type="line"/>
      <point x="342" y="814"/>
      <point x="204" y="715"/>
      <point x="189" y="704" type="curve"/>
      <point x="189" y="704"/>
      <point x="141" y="810"/>
      <point x="141" y="810" type="curve"/>
      <point x="138" y="808" type="line"/>
      <point x="138" y="808"/>
      <point x="180" y="676"/>
      <point x="180" y="676" type="curve"/>
      <point x="180" y="676"/>
      <point x="344" y="811"/>
      <point x="344" y="811" type="curve"/>
    </contour>
  </outline>
</glyph>
<glyph name="uogonek" format="2">
  <advance width="374"/>
  <unicode hex="0173"/>
  <outline>
    <contour>
      <point x="310" y="550" type="line"/>
      <point x="187" y="282" type="line"/>
      <point x="177" y="261" type="line" smooth="yes"/>
      <point x="117" y="138"/>
      <point x="28" y="4"/>
      <point x="-34" y="4" type="curve" smooth="yes"/>
      <point x="-73" y="4"/>
      <point x="-83" y="72"/>
      <point x="-46" y="152" type="curve" smooth="yes"/>
      <point x="144" y="550" type="line"/>
      <point x="123" y="550" type="line"/>
      <point x="0" y="282" type="line"/>
      <point x="-55" y="161" type="line" smooth="yes"/>
      <point x="-95" y="72"/>
      <point x="-77" y="0"/>
      <point x="-35" y="0" type="curve" smooth="yes"/>
      <point x="18" y="0"/>
      <point x="86" y="85"/>
      <point x="142" y="186" type="curve"/>
      <point x="131" y="161" type="line" smooth="yes"/>
      <point x="91" y="72"/>
      <point x="110" y="0"/>
      <point x="152" y="0" type="curve" smooth="yes"/>
      <point x="155" y="0" type="line"/>
      <point x="100" y="-26"/>
      <point x="80" y="-60"/>
      <point x="80" y="-90" type="curve" smooth="yes"/>
      <point x="80" y="-118"/>
      <point x="102" y="-142"/>
      <point x="135" y="-142" type="curve" smooth="yes"/>
      <point x="144" y="-142"/>
      <point x="153" y="-140"/>
      <point x="162" y="-137" type="curve"/>
      <point x="160" y="-133" type="line"/>
      <point x="151" y="-136"/>
      <point x="142" y="-138"/>
      <point x="135" y="-138" type="curve" smooth="yes"/>
      <point x="109" y="-138"/>
      <point x="94" y="-119"/>
      <point x="94" y="-96" type="curve" smooth="yes"/>
      <point x="94" y="-63"/>
      <point x="111" y="-22"/>
      <point x="169" y="3" type="curve"/>
      <point x="236" y="23"/>
      <point x="321" y="156"/>
      <point x="377" y="280" type="curve"/>
      <point x="374" y="282" type="line"/>
      <point x="315" y="154"/>
      <point x="219" y="4"/>
      <point x="152" y="4" type="curve" smooth="yes"/>
      <point x="113" y="4"/>
      <point x="103" y="72"/>
      <point x="140" y="152" type="curve" smooth="yes"/>
      <point x="331" y="550" type="line"/>
    </contour>
  </outline>
</glyph>
<glyph name="quotedblright" format="2">
  <advance width="278"/>
  <unicode hex="201D"/>
  <outline>
    <contour>
      <point x="211" y="774" type="curve" smooth="yes"/>
      <point x="196" y="774"/>
      <point x="182" y="761"/>
      <point x="182" y="747" type="curve" smooth="yes"/>
      <point x="182" y="739"/>
      <point x="186" y="731"/>
      <point x="197" y="731" type="curve" smooth="yes"/>
      <point x="199" y="731"/>
      <point x="203" y="731"/>
      <point x="205" y="732" type="curve"/>
      <point x="206" y="729"/>
      <point x="208" y="725"/>
      <point x="204" y="718" type="curve"/>
      <point x="190" y="698"/>
      <point x="175" y="680"/>
      <point x="155" y="666" type="curve"/>
      <point x="157" y="662" type="line"/>
      <point x="186" y="682"/>
      <point x="227" y="723"/>
      <point x="227" y="753" type="curve" smooth="yes"/>
      <point x="227" y="766"/>
      <point x="219" y="774"/>
    </contour>
    <contour>
      <point x="275" y="774" type="curve" smooth="yes"/>
      <point x="260" y="774"/>
      <point x="246" y="761"/>
      <point x="246" y="747" type="curve" smooth="yes"/>
      <point x="246" y="739"/>
      <point x="250" y="731"/>
      <point x="261" y="731" type="curve" smooth="yes"/>
      <point x="263" y="731"/>
      <point x="267" y="731"/>
      <point x="269" y="732" type="curve"/>
      <point x="270" y="729"/>
      <point x="272" y="725"/>
      <point x="268" y="718" type="curve"/>
      <point x="254" y="698"/>
      <point x="239" y="680"/>
      <point x="219" y="666" type="curve"/>
      <point x="221" y="662" type="line"/>
      <point x="250" y="682"/>
      <point x="291" y="723"/>
      <point x="291" y="753" type="curve" smooth="yes"/>
      <point x="291" y="766"/>
      <point x="283" y="774"/>
    </contour>
  </outline>
</glyph>
<glyph name="fi" format="2">
  <advance width="402"/>
  <unicode hex="FB01"/>
  <outline>
    <contour>
      <point x="18" y="483" type="line"/>
      <point x="96" y="483" type="line"/>
      <point x="33" y="360"/>
      <point x="-24" y="233"/>
      <point x="-72" y="128" type="curve" smooth="yes"/>
      <point x="-162" y="-66"/>
      <point x="-336" y="-455"/>
      <point x="-555" y="-438" type="curve" smooth="yes"/>
      <point x="-600" y="-435"/>
      <point x="-624" y="-403"/>
      <point x="-619" y="-364" type="curve"/>
      <point x="-618" y="-344"/>
      <point x="-606" y="-307"/>
      <point x="-581" y="-304" type="curve"/>
      <point x="-584" y="-303" type="line"/>
      <point x="-608" y="-306"/>
      <point x="-628" y="-338"/>
      <point x="-630" y="-357" type="curve" smooth="yes"/>
      <point x="-634" y="-398"/>
      <point x="-608" y="-438"/>
      <point x="-556" y="-442" type="curve" smooth="yes"/>
      <point x="-437" y="-451"/>
      <point x="-338" y="-375"/>
      <point x="-256" y="-261" type="curve" smooth="yes"/>
      <point x="-176" y="-151"/>
      <point x="-113" y="-5"/>
      <point x="-55" y="125" type="curve" smooth="yes"/>
      <point x="-8" y="233"/>
      <point x="46" y="360"/>
      <point x="107" y="483" type="curve"/>
      <point x="253" y="483" type="line"/>
      <point x="253" y="487" type="line"/>
      <point x="109" y="487" type="line"/>
      <point x="189" y="648"/>
      <point x="279" y="800"/>
      <point x="373" y="890" type="curve" smooth="yes"/>
      <point x="425" y="937"/>
      <point x="496" y="976"/>
      <point x="554" y="957" type="curve" smooth="yes"/>
      <point x="569" y="952"/>
      <point x="573" y="967"/>
      <point x="561" y="970" type="curve" smooth="yes"/>
      <point x="508" y="983"/>
      <point x="426" y="945"/>
      <point x="371" y="893" type="curve" smooth="yes"/>
      <point x="275" y="802"/>
      <point x="182" y="648"/>
      <point x="98" y="487" type="curve"/>
      <point x="18" y="487" type="line"/>
    </contour>
    <contour>
      <point x="338" y="550" type="line"/>
      <point x="215" y="282" type="line"/>
      <point x="160" y="161" type="line" smooth="yes"/>
      <point x="120" y="72"/>
      <point x="138" y="0"/>
      <point x="180" y="0" type="curve" smooth="yes"/>
      <point x="249" y="0"/>
      <point x="344" y="146"/>
      <point x="405" y="280" type="curve"/>
      <point x="402" y="282" type="line"/>
      <point x="343" y="154"/>
      <point x="247" y="4"/>
      <point x="181" y="4" type="curve" smooth="yes"/>
      <point x="142" y="4"/>
      <point x="132" y="72"/>
      <point x="169" y="152" type="curve" smooth="yes"/>
      <point x="359" y="550" type="line"/>
    </contour>
    <contour>
      <point x="412" y="735" type="curve"/>
      <point x="410" y="726"/>
      <point x="414" y="717"/>
      <point x="425" y="717" type="curve" smooth="yes"/>
      <point x="435" y="717"/>
      <point x="446" y="724"/>
      <point x="449" y="735" type="curve"/>
      <point x="453" y="746"/>
      <point x="447" y="754"/>
      <point x="437" y="754" type="curve" smooth="yes"/>
      <point x="426" y="754"/>
      <point x="416" y="746"/>
    </contour>
  </outline>
</glyph>
<glyph name="T.2" format="2">
  <advance width="1015"/>
  <outline>
    <contour>
      <point x="498" y="200" type="line"/>
      <point x="512" y="180"/>
      <point x="517" y="156"/>
      <point x="514" y="133" type="curve" smooth="yes"/>
      <point x="507" y="52"/>
      <point x="421" y="-23"/>
      <point x="326" y="-23" type="curve" smooth="yes"/>
      <point x="244" y="-23"/>
      <point x="172" y="33"/>
      <point x="183" y="156" type="curve" smooth="yes"/>
      <point x="198" y="324"/>
      <point x="352" y="460"/>
      <point x="526" y="460" type="curve" smooth="yes"/>
      <point x="683" y="460"/>
      <point x="736" y="331"/>
      <point x="731" y="222" type="curve" smooth="yes"/>
      <point x="720" y="19"/>
      <point x="496" y="-230"/>
      <point x="227" y="-230" type="curve" smooth="yes"/>
      <point x="-1" y="-230"/>
      <point x="-108" y="-64"/>
      <point x="-98" y="138" type="curve" smooth="yes"/>
      <point x="-82" y="458"/>
      <point x="256" y="784"/>
      <point x="569" y="790" type="curve"/>
      <point x="577" y="784"/>
      <point x="585" y="779"/>
      <point x="594" y="774" type="curve"/>
      <point x="704" y="703"/>
      <point x="804" y="631"/>
      <point x="922" y="631" type="curve" smooth="yes"/>
      <point x="947" y="631"/>
      <point x="961" y="647"/>
      <point x="961" y="665" type="curve" smooth="yes"/>
      <point x="961" y="705"/>
      <point x="856" y="794"/>
      <point x="575" y="794" type="curve" smooth="yes"/>
      <point x="571" y="794" type="line"/>
      <point x="461" y="861"/>
      <point x="323" y="937"/>
      <point x="187" y="937" type="curve" smooth="yes"/>
      <point x="1" y="937"/>
      <point x="-105" y="816"/>
      <point x="-81" y="730" type="curve"/>
      <point x="-77" y="732" type="line"/>
      <point x="-100" y="816"/>
      <point x="29" y="921"/>
      <point x="211" y="921" type="curve" smooth="yes"/>
      <point x="346" y="921"/>
      <point x="457" y="859"/>
      <point x="563" y="793" type="curve"/>
      <point x="254" y="786"/>
      <point x="-99" y="483"/>
      <point x="-115" y="158" type="curve" smooth="yes"/>
      <point x="-126" y="-46"/>
      <point x="-14" y="-240"/>
      <point x="236" y="-240" type="curve" smooth="yes"/>
      <point x="508" y="-240"/>
      <point x="730" y="3"/>
      <point x="740" y="207" type="curve" smooth="yes"/>
      <point x="747" y="325"/>
      <point x="685" y="464"/>
      <point x="527" y="464" type="curve" smooth="yes"/>
      <point x="348" y="464"/>
      <point x="183" y="325"/>
      <point x="168" y="157" type="curve" smooth="yes"/>
      <point x="158" y="35"/>
      <point x="233" y="-27"/>
      <point x="323" y="-27" type="curve" smooth="yes"/>
      <point x="424" y="-27"/>
      <point x="517" y="50"/>
      <point x="524" y="133" type="curve"/>
      <point x="528" y="160"/>
      <point x="519" y="182"/>
      <point x="501" y="203" type="curve"/>
    </contour>
    <contour>
      <point x="918" y="643" type="curve" smooth="yes"/>
      <point x="816" y="643"/>
      <point x="695" y="716"/>
      <point x="596" y="778" type="curve" smooth="yes"/>
      <point x="577" y="790" type="line"/>
      <point x="854" y="789"/>
      <point x="957" y="703"/>
      <point x="957" y="665" type="curve" smooth="yes"/>
      <point x="957" y="649"/>
      <point x="938" y="643"/>
    </contour>
  </outline>
</glyph>
<glyph name="T_h" format="2">
  <advance width="1076"/>
  <outline>
    <contour>
      <point x="42" y="525" type="line"/>
      <point x="28" y="544"/>
      <point x="24" y="567"/>
      <point x="29" y="589" type="curve"/>
      <point x="37" y="665"/>
      <point x="121" y="735"/>
      <point x="211" y="735" type="curve" smooth="yes"/>
      <point x="288" y="735"/>
      <point x="358" y="683"/>
      <point x="345" y="567" type="curve" smooth="yes"/>
      <point x="328" y="429"/>
      <point x="210" y="320"/>
      <point x="79" y="315" type="curve" smooth="yes"/>
      <point x="-70" y="315"/>
      <point x="-130" y="429"/>
      <point x="-130" y="536" type="curve" smooth="yes"/>
      <point x="-130" y="740"/>
      <point x="83" y="970"/>
      <point x="381" y="970" type="curve" smooth="yes"/>
      <point x="550" y="970"/>
      <point x="735" y="864"/>
      <point x="912" y="795" type="curve"/>
      <point x="892" y="764" type="line"/>
      <point x="800" y="600"/>
      <point x="756" y="445"/>
      <point x="690" y="313" type="curve" smooth="yes"/>
      <point x="532" y="-1" type="line"/>
      <point x="550" y="-1" type="line"/>
      <point x="628" y="158" type="line"/>
      <point x="642" y="188" type="line" smooth="yes"/>
      <point x="712" y="325"/>
      <point x="871" y="560"/>
      <point x="950" y="560" type="curve" smooth="yes"/>
      <point x="972" y="560"/>
      <point x="1000" y="548"/>
      <point x="993" y="493" type="curve" smooth="yes"/>
      <point x="985" y="423"/>
      <point x="937" y="371"/>
      <point x="897" y="306" type="curve" smooth="yes"/>
      <point x="852" y="235"/>
      <point x="817" y="167"/>
      <point x="808" y="92" type="curve" smooth="yes"/>
      <point x="803" y="43"/>
      <point x="825" y="0"/>
      <point x="854" y="0" type="curve" smooth="yes"/>
      <point x="923" y="0"/>
      <point x="1018" y="146"/>
      <point x="1079" y="280" type="curve"/>
      <point x="1076" y="282" type="line"/>
      <point x="1017" y="154"/>
      <point x="922" y="5"/>
      <point x="855" y="5" type="curve" smooth="yes"/>
      <point x="829" y="5"/>
      <point x="810" y="39"/>
      <point x="816" y="86" type="curve" smooth="yes"/>
      <point x="825" y="164"/>
      <point x="869" y="227"/>
      <point x="915" y="299" type="curve" smooth="yes"/>
      <point x="954" y="358"/>
      <point x="993" y="434"/>
      <point x="1000" y="490" type="curve" smooth="yes"/>
      <point x="1007" y="545"/>
      <point x="974" y="565"/>
      <point x="950" y="565" type="curve" smooth="yes"/>
      <point x="883" y="565"/>
      <point x="766" y="411"/>
      <point x="687" y="278" type="curve"/>
      <point x="710" y="325" type="line" smooth="yes"/>
      <point x="776" y="458"/>
      <point x="820" y="596"/>
      <point x="905" y="751" type="curve" smooth="yes"/>
      <point x="912" y="764"/>
      <point x="920" y="776"/>
      <point x="929" y="789" type="curve"/>
      <point x="1006" y="760"/>
      <point x="1082" y="739"/>
      <point x="1154" y="738" type="curve" smooth="yes"/>
      <point x="1236" y="738"/>
      <point x="1359" y="764"/>
      <point x="1359" y="871" type="curve" smooth="yes"/>
      <point x="1359" y="941"/>
      <point x="1292" y="972"/>
      <point x="1209" y="972" type="curve" smooth="yes"/>
      <point x="1089" y="972"/>
      <point x="979" y="892"/>
      <point x="914" y="799" type="curve"/>
      <point x="739" y="869"/>
      <point x="555" y="976"/>
      <point x="379" y="976" type="curve" smooth="yes"/>
      <point x="71" y="976"/>
      <point x="-139" y="757"/>
      <point x="-139" y="548" type="curve" smooth="yes"/>
      <point x="-139" y="436"/>
      <point x="-74" y="315"/>
      <point x="69" y="311" type="curve" smooth="yes"/>
      <point x="208" y="311"/>
      <point x="341" y="425"/>
      <point x="358" y="566" type="curve" smooth="yes"/>
      <point x="372" y="681"/>
      <point x="297" y="739"/>
      <point x="212" y="739" type="curve" smooth="yes"/>
      <point x="118" y="739"/>
      <point x="28" y="667"/>
      <point x="19" y="589" type="curve"/>
      <point x="14" y="564"/>
      <point x="22" y="543"/>
      <point x="37" y="523" type="curve"/>
    </contour>
    <contour>
      <point x="1216" y="968" type="curve" smooth="yes"/>
      <point x="1288" y="968"/>
      <point x="1350" y="938"/>
      <point x="1350" y="876" type="curve" smooth="yes"/>
      <point x="1350" y="783"/>
      <point x="1234" y="742"/>
      <point x="1154" y="742" type="curve" smooth="yes"/>
      <point x="1082" y="743"/>
      <point x="1008" y="764"/>
      <point x="931" y="793" type="curve"/>
      <point x="996" y="884"/>
      <point x="1105" y="967"/>
    </contour>
    <contour>
      <point x="734" y="798" type="line"/>
      <point x="565" y="743"/>
      <point x="431" y="445"/>
      <point x="346" y="283" type="curve" smooth="yes"/>
      <point x="279" y="156"/>
      <point x="129" y="-62"/>
      <point x="-44" y="-52" type="curve" smooth="yes"/>
      <point x="-96" y="-49"/>
      <point x="-178" y="1"/>
      <point x="-140" y="94" type="curve"/>
      <point x="-141" y="95" type="line"/>
      <point x="-185" y="-8"/>
      <point x="-103" y="-55"/>
      <point x="-44" y="-58" type="curve" smooth="yes"/>
      <point x="163" y="-69"/>
      <point x="286" y="123"/>
      <point x="371" y="287" type="curve" smooth="yes"/>
      <point x="452" y="443"/>
      <point x="570" y="747"/>
      <point x="732" y="787" type="curve"/>
    </contour>
  </outline>
</glyph>
<glyph name="o_m" format="2">
  <advance width="1036"/>
  <outline>
    <contour>
      <point x="703" y="560" type="curve" smooth="yes"/>
      <point x="742" y="560"/>
      <point x="760" y="503"/>
      <point x="722" y="423" type="curve" smooth="yes"/>
      <point x="705" y="387" type="line"/>
      <point x="647" y="310"/>
      <point x="595" y="224"/>
      <point x="568" y="164" type="curve" smooth="yes"/>
      <point x="524" y="73"/>
      <point x="495" y="0"/>
      <point x="515" y="0" type="curve" smooth="yes"/>
      <point x="531" y="0"/>
      <point x="569" y="48"/>
      <point x="630" y="188" type="curve" smooth="yes"/>
      <point x="722" y="401" type="line"/>
      <point x="789" y="488"/>
      <point x="862" y="560"/>
      <point x="910" y="560" type="curve" smooth="yes"/>
      <point x="932" y="560"/>
      <point x="960" y="548"/>
      <point x="953" y="493" type="curve" smooth="yes"/>
      <point x="945" y="423"/>
      <point x="897" y="371"/>
      <point x="857" y="306" type="curve" smooth="yes"/>
      <point x="812" y="235"/>
      <point x="777" y="167"/>
      <point x="768" y="92" type="curve" smooth="yes"/>
      <point x="763" y="43"/>
      <point x="785" y="0"/>
      <point x="814" y="0" type="curve" smooth="yes"/>
      <point x="883" y="0"/>
      <point x="978" y="146"/>
      <point x="1039" y="280" type="curve"/>
      <point x="1036" y="282" type="line"/>
      <point x="977" y="154"/>
      <point x="882" y="5"/>
      <point x="815" y="5" type="curve" smooth="yes"/>
      <point x="789" y="5"/>
      <point x="770" y="39"/>
      <point x="776" y="86" type="curve" smooth="yes"/>
      <point x="785" y="164"/>
      <point x="829" y="227"/>
      <point x="875" y="299" type="curve" smooth="yes"/>
      <point x="914" y="358"/>
      <point x="953" y="434"/>
      <point x="960" y="490" type="curve" smooth="yes"/>
      <point x="967" y="545"/>
      <point x="934" y="565"/>
      <point x="910" y="565" type="curve" smooth="yes"/>
      <point x="863" y="565"/>
      <point x="796" y="502"/>
      <point x="732" y="422" type="curve"/>
      <point x="767" y="508"/>
      <point x="744" y="565"/>
      <point x="703" y="565" type="curve" smooth="yes"/>
      <point x="654" y="565"/>
      <point x="583" y="496"/>
      <point x="516" y="411" type="curve"/>
      <point x="524" y="438"/>
      <point x="529" y="463"/>
      <point x="529" y="484" type="curve" smooth="yes"/>
      <point x="529" y="536"/>
      <point x="502" y="564"/>
      <point x="458" y="565" type="curve" smooth="yes"/>
      <point x="411" y="566"/>
      <point x="360" y="541"/>
      <point x="316" y="502" type="curve"/>
      <point x="307" y="540"/>
      <point x="285" y="563"/>
      <point x="254" y="563" type="curve" smooth="yes"/>
      <point x="175" y="563"/>
      <point x="64" y="440"/>
      <point x="0" y="282" type="curve" smooth="yes"/>
      <point x="-24" y="224"/>
      <point x="-34" y="173"/>
      <point x="-37" y="116" type="curve" smooth="yes"/>
      <point x="-41" y="41"/>
      <point x="-16" y="-10"/>
      <point x="31" y="-12" type="curve" smooth="yes"/>
      <point x="110" y="-12"/>
      <point x="221" y="111"/>
      <point x="285" y="269" type="curve" smooth="yes"/>
      <point x="309" y="327"/>
      <point x="319" y="378"/>
      <point x="322" y="435" type="curve" smooth="yes"/>
      <point x="323" y="458"/>
      <point x="322" y="478"/>
      <point x="318" y="496" type="curve"/>
      <point x="361" y="536"/>
      <point x="411" y="561"/>
      <point x="458" y="560" type="curve" smooth="yes"/>
      <point x="498" y="559"/>
      <point x="522" y="531"/>
      <point x="522" y="484" type="curve" smooth="yes"/>
      <point x="522" y="459"/>
      <point x="511" y="423"/>
      <point x="496" y="384" type="curve"/>
      <point x="439" y="308"/>
      <point x="388" y="223"/>
      <point x="361" y="164" type="curve" smooth="yes"/>
      <point x="317" y="73"/>
      <point x="288" y="0"/>
      <point x="308" y="0" type="curve" smooth="yes"/>
      <point x="324" y="0"/>
      <point x="358" y="50"/>
      <point x="423" y="188" type="curve" smooth="yes"/>
      <point x="452" y="250"/>
      <point x="490" y="329"/>
      <point x="512" y="396" type="curve"/>
      <point x="580" y="485"/>
      <point x="654" y="560"/>
    </contour>
    <contour>
      <point x="256" y="558" type="curve" smooth="yes"/>
      <point x="285" y="558"/>
      <point x="301" y="532"/>
      <point x="306" y="493" type="curve"/>
      <point x="244" y="433"/>
      <point x="197" y="343"/>
      <point x="197" y="263" type="curve" smooth="yes"/>
      <point x="197" y="235"/>
      <point x="208" y="209"/>
      <point x="232" y="209" type="curve" smooth="yes"/>
      <point x="234" y="209"/>
      <point x="236" y="209"/>
      <point x="239" y="210" type="curve"/>
      <point x="176" y="87"/>
      <point x="90" y="-7"/>
      <point x="31" y="-7" type="curve"/>
      <point x="-8" y="-4"/>
      <point x="-27" y="41"/>
      <point x="-23" y="107" type="curve" smooth="yes"/>
      <point x="-20" y="163"/>
      <point x="-8" y="217"/>
      <point x="16" y="275" type="curve" smooth="yes"/>
      <point x="77" y="430"/>
      <point x="186" y="558"/>
    </contour>
    <contour>
      <point x="308" y="444" type="curve" smooth="yes"/>
      <point x="305" y="388"/>
      <point x="292" y="334"/>
      <point x="269" y="276" type="curve" smooth="yes"/>
      <point x="261" y="256"/>
      <point x="252" y="237"/>
      <point x="243" y="218" type="curve"/>
      <point x="239" y="215"/>
      <point x="235" y="214"/>
      <point x="232" y="214" type="curve" smooth="yes"/>
      <point x="208" y="214"/>
      <point x="203" y="239"/>
      <point x="203" y="264" type="curve" smooth="yes"/>
      <point x="203" y="341"/>
      <point x="247" y="427"/>
      <point x="307" y="486" type="curve"/>
      <point x="309" y="473"/>
      <point x="309" y="459"/>
    </contour>
    <contour>
      <point x="515" y="5" type="curve" smooth="yes"/>
      <point x="501" y="5"/>
      <point x="528" y="73"/>
      <point x="572" y="161" type="curve" smooth="yes"/>
      <point x="596" y="213"/>
      <point x="641" y="288"/>
      <point x="691" y="359" type="curve"/>
      <point x="612" y="193" type="line" smooth="yes"/>
      <point x="534" y="29"/>
      <point x="523" y="5"/>
    </contour>
    <contour>
      <point x="405" y="193" type="curve" smooth="yes"/>
      <point x="323" y="31"/>
      <point x="316" y="5"/>
      <point x="308" y="5" type="curve" smooth="yes"/>
      <point x="294" y="5"/>
      <point x="321" y="73"/>
      <point x="365" y="161" type="curve" smooth="yes"/>
      <point x="389" y="214"/>
      <point x="435" y="291"/>
      <point x="487" y="363" type="curve"/>
      <point x="460" y="300"/>
      <point x="425" y="232"/>
    </contour>
  </outline>
</glyph>
<glyph name="o_v" format="2">
  <advance width="804"/>
  <outline>
    <contour>
      <point x="526" y="452" type="curve" smooth="yes"/>
      <point x="515" y="390"/>
      <point x="470" y="341"/>
      <point x="432" y="282" type="curve" smooth="yes"/>
      <point x="390" y="223"/>
      <point x="358" y="155"/>
      <point x="349" y="92" type="curve" smooth="yes"/>
      <point x="344" y="43"/>
      <point x="365" y="0"/>
      <point x="401" y="0" type="curve" smooth="yes"/>
      <point x="468" y="0"/>
      <point x="548" y="75"/>
      <point x="616" y="178" type="curve"/>
      <point x="626" y="173"/>
      <point x="638" y="171"/>
      <point x="652" y="171" type="curve" smooth="yes"/>
      <point x="692" y="171"/>
      <point x="765" y="214"/>
      <point x="807" y="280" type="curve"/>
      <point x="804" y="282" type="line"/>
      <point x="764" y="219"/>
      <point x="692" y="175"/>
      <point x="655" y="175" type="curve" smooth="yes"/>
      <point x="640" y="175"/>
      <point x="629" y="177"/>
      <point x="619" y="182" type="curve"/>
      <point x="661" y="245"/>
      <point x="698" y="319"/>
      <point x="726" y="392" type="curve" smooth="yes"/>
      <point x="754" y="461"/>
      <point x="758" y="548"/>
      <point x="718" y="548" type="curve" smooth="yes"/>
      <point x="666" y="548"/>
      <point x="583" y="414"/>
      <point x="571" y="305" type="curve" smooth="yes"/>
      <point x="566" y="258"/>
      <point x="572" y="209"/>
      <point x="603" y="185" type="curve"/>
      <point x="534" y="72"/>
      <point x="465" y="5"/>
      <point x="402" y="5" type="curve" smooth="yes"/>
      <point x="373" y="5"/>
      <point x="351" y="39"/>
      <point x="357" y="86" type="curve" smooth="yes"/>
      <point x="366" y="152"/>
      <point x="407" y="215"/>
      <point x="450" y="275" type="curve" smooth="yes"/>
      <point x="487" y="328"/>
      <point x="525" y="400"/>
      <point x="534" y="452" type="curve" smooth="yes"/>
      <point x="536" y="465"/>
      <point x="536" y="474"/>
      <point x="536" y="478" type="curve" smooth="yes"/>
      <point x="536" y="541"/>
      <point x="493" y="565"/>
      <point x="445" y="565" type="curve" smooth="yes"/>
      <point x="403" y="565"/>
      <point x="357" y="542"/>
      <point x="315" y="506" type="curve"/>
      <point x="305" y="541"/>
      <point x="284" y="563"/>
      <point x="254" y="563" type="curve" smooth="yes"/>
      <point x="175" y="563"/>
      <point x="64" y="440"/>
      <point x="0" y="282" type="curve" smooth="yes"/>
      <point x="-24" y="224"/>
      <point x="-34" y="173"/>
      <point x="-37" y="116" type="curve" smooth="yes"/>
      <point x="-41" y="41"/>
      <point x="-16" y="-10"/>
      <point x="31" y="-12" type="curve" smooth="yes"/>
      <point x="110" y="-12"/>
      <point x="219" y="112"/>
      <point x="285" y="269" type="curve" smooth="yes"/>
      <point x="308" y="327"/>
      <point x="319" y="378"/>
      <point x="322" y="435" type="curve" smooth="yes"/>
      <point x="323" y="459"/>
      <point x="321" y="481"/>
      <point x="317" y="500" type="curve"/>
      <point x="358" y="536"/>
      <point x="404" y="560"/>
      <point x="445" y="560" type="curve" smooth="yes"/>
      <point x="489" y="560"/>
      <point x="529" y="536"/>
      <point x="529" y="480" type="curve" smooth="yes"/>
      <point x="529" y="471"/>
      <point x="528" y="462"/>
    </contour>
    <contour>
      <point x="31" y="-7" type="curve"/>
      <point x="-8" y="-4"/>
      <point x="-27" y="41"/>
      <point x="-23" y="107" type="curve" smooth="yes"/>
      <point x="-20" y="163"/>
      <point x="-8" y="217"/>
      <point x="16" y="275" type="curve" smooth="yes"/>
      <point x="77" y="430"/>
      <point x="186" y="558"/>
      <point x="256" y="558" type="curve" smooth="yes"/>
      <point x="284" y="558"/>
      <point x="300" y="534"/>
      <point x="306" y="498" type="curve"/>
      <point x="233" y="432"/>
      <point x="175" y="328"/>
      <point x="175" y="242" type="curve" smooth="yes"/>
      <point x="175" y="208"/>
      <point x="187" y="176"/>
      <point x="214" y="176" type="curve" smooth="yes"/>
      <point x="217" y="176"/>
      <point x="219" y="176"/>
      <point x="222" y="177" type="curve"/>
      <point x="162" y="70"/>
      <point x="85" y="-7"/>
    </contour>
    <contour>
      <point x="702" y="377" type="curve" smooth="yes"/>
      <point x="670" y="306"/>
      <point x="638" y="243"/>
      <point x="606" y="190" type="curve"/>
      <point x="578" y="213"/>
      <point x="573" y="258"/>
      <point x="577" y="301" type="curve" smooth="yes"/>
      <point x="589" y="412"/>
      <point x="671" y="543"/>
      <point x="718" y="543" type="curve" smooth="yes"/>
      <point x="755" y="543"/>
      <point x="737" y="459"/>
    </contour>
    <contour>
      <point x="214" y="181" type="curve" smooth="yes"/>
      <point x="192" y="181"/>
      <point x="181" y="212"/>
      <point x="181" y="243" type="curve" smooth="yes"/>
      <point x="181" y="325"/>
      <point x="237" y="425"/>
      <point x="307" y="490" type="curve"/>
      <point x="308" y="476"/>
      <point x="309" y="461"/>
      <point x="308" y="444" type="curve" smooth="yes"/>
      <point x="305" y="388"/>
      <point x="293" y="334"/>
      <point x="269" y="276" type="curve" smooth="yes"/>
      <point x="257" y="245"/>
      <point x="242" y="215"/>
      <point x="227" y="187" type="curve"/>
      <point x="223" y="183"/>
      <point x="218" y="181"/>
    </contour>
  </outline>
</glyph>
<glyph name="orn.1" format="2">
  <outline>
    <contour>
      <point x="0" y="282" type="line"/>
      <point x="-50" y="169"/>
      <point x="-72" y="67"/>
      <point x="-72" y="-19" type="curve" smooth="yes"/>
      <point x="-72" y="-88"/>
      <point x="-57" y="-148"/>
      <point x="-33" y="-199" type="curve"/>
      <point x="-197" y="-280"/>
      <point x="-358" y="-368"/>
      <point x="-512" y="-368" type="curve" smooth="yes"/>
      <point x="-728" y="-368"/>
      <point x="-799" y="-245"/>
      <point x="-781" y="-155" type="curve" smooth="yes"/>
      <point x="-773" y="-115"/>
      <point x="-740" y="-66"/>
      <point x="-683" y="-66" type="curve" smooth="yes"/>
      <point x="-679" y="-66" type="line"/>
      <point x="-679" y="-64" type="line"/>
      <point x="-681" y="-64"/>
      <point x="-683" y="-63"/>
      <point x="-684" y="-63" type="curve" smooth="yes"/>
      <point x="-743" y="-63"/>
      <point x="-781" y="-118"/>
      <point x="-790" y="-160" type="curve" smooth="yes"/>
      <point x="-808" y="-252"/>
      <point x="-744" y="-375"/>
      <point x="-527" y="-375" type="curve" smooth="yes"/>
      <point x="-367" y="-375"/>
      <point x="-197" y="-286"/>
      <point x="-31" y="-205" type="curve"/>
      <point x="34" y="-336"/>
      <point x="167" y="-406"/>
      <point x="300" y="-407" type="curve" smooth="yes"/>
      <point x="498" y="-401"/>
      <point x="594" y="-301"/>
      <point x="594" y="-210" type="curve" smooth="yes"/>
      <point x="594" y="-135"/>
      <point x="517" y="-66"/>
      <point x="387" y="-66" type="curve" smooth="yes"/>
      <point x="249" y="-66"/>
      <point x="109" y="-128"/>
      <point x="-28" y="-196" type="curve"/>
      <point x="-52" y="-146"/>
      <point x="-66" y="-87"/>
      <point x="-66" y="-19" type="curve" smooth="yes"/>
      <point x="-66" y="69"/>
      <point x="-51" y="162"/>
      <point x="3" y="280" type="curve"/>
    </contour>
    <contour>
      <point x="300" y="-402" type="curve" smooth="yes"/>
      <point x="169" y="-401"/>
      <point x="38" y="-333"/>
      <point x="-26" y="-202" type="curve"/>
      <point x="112" y="-135"/>
      <point x="248" y="-74"/>
      <point x="374" y="-74" type="curve" smooth="yes"/>
      <point x="502" y="-74"/>
      <point x="578" y="-141"/>
      <point x="578" y="-215" type="curve" smooth="yes"/>
      <point x="578" y="-303"/>
      <point x="493" y="-398"/>
    </contour>
  </outline>
</glyph>
